<svg width="10571" height="18777" viewBox="0 0 10571 18777" fill="none" xmlns="http://www.w3.org/2000/svg">
<g clip-path="url(#clip0_356_935)" filter="url(#filter0_d_356_935)">
<rect width="10550.8" height="18756.9" transform="translate(10)" fill="#001F00"/>
<rect x="1132.6" y="17287.8" width="3925.17" height="7386.36" rx="300.404" transform="rotate(128.559 1132.6 17287.8)" stroke="#D7BA74" stroke-width="131.885"/>
<rect x="754.695" y="17323.8" width="3879.2" height="7386.36" rx="300.404" transform="rotate(128.559 754.695 17323.8)" stroke="#D7BA74" stroke-width="131.885"/>
<rect x="413.235" y="17360.1" width="3554.73" height="7386.36" rx="300.404" transform="rotate(128.559 413.235 17360.1)" stroke="#D7BA74" stroke-width="131.885"/>
<rect x="13442.8" y="21960.4" width="3138.69" height="5883.37" rx="300.404" transform="rotate(135.375 13442.8 21960.4)" stroke="#D7BA74" stroke-width="131.885"/>
<rect x="13442.8" y="21603.8" width="3138.69" height="5883.37" rx="300.404" transform="rotate(135.375 13442.8 21603.8)" stroke="#D7BA74" stroke-width="131.885"/>
<rect x="13442.8" y="21257" width="3138.69" height="5883.37" rx="300.404" transform="rotate(135.375 13442.8 21257)" stroke="#D7BA74" stroke-width="131.885"/>
</g>
<defs>
<filter id="filter0_d_356_935" x="0.230776" y="0" width="10570.3" height="18776.4" filterUnits="userSpaceOnUse" color-interpolation-filters="sRGB">
<feFlood flood-opacity="0" result="BackgroundImageFix"/>
<feColorMatrix in="SourceAlpha" type="matrix" values="0 0 0 0 0 0 0 0 0 0 0 0 0 0 0 0 0 0 127 0" result="hardAlpha"/>
<feOffset dy="9.76922"/>
<feGaussianBlur stdDeviation="4.88461"/>
<feComposite in2="hardAlpha" operator="out"/>
<feColorMatrix type="matrix" values="0 0 0 0 0 0 0 0 0 0 0 0 0 0 0 0 0 0 0.8 0"/>
<feBlend mode="normal" in2="BackgroundImageFix" result="effect1_dropShadow_356_935"/>
<feBlend mode="normal" in="SourceGraphic" in2="effect1_dropShadow_356_935" result="shape"/>
</filter>
<clipPath id="clip0_356_935">
<rect width="10550.8" height="18756.9" fill="white" transform="translate(10)"/>
</clipPath>
</defs>
</svg>
