<svg width="384" height="384" viewBox="0 0 384 384" fill="none" xmlns="http://www.w3.org/2000/svg">
<rect width="384" height="383.99" rx="45" fill="#AD8E50"/>
<path fill-rule="evenodd" clip-rule="evenodd" d="M152.01 95.4785C162.353 95.0023 165.651 94.8965 192 94.8965C218.349 94.8965 221.647 95.0111 231.982 95.4785C242.317 95.9458 249.371 97.5948 255.544 99.9845C262.008 102.427 267.872 106.245 272.722 111.183C277.66 116.025 281.469 121.88 283.903 128.352C286.302 134.525 287.942 141.579 288.418 151.896C288.894 162.258 289 165.556 289 191.895C289 218.243 288.885 221.541 288.418 231.885C287.951 242.202 286.302 249.256 283.903 255.429C281.469 261.902 277.653 267.767 272.722 272.615C267.872 277.554 262.008 281.363 255.544 283.797C249.371 286.195 242.317 287.835 231.999 288.312C221.647 288.788 218.349 288.894 192 288.894C165.651 288.894 162.353 288.779 152.01 288.312C141.692 287.844 134.638 286.195 128.465 283.797C121.992 281.363 116.127 277.547 111.278 272.615C106.344 267.771 102.525 261.909 100.088 255.438C97.6984 249.265 96.0582 242.211 95.582 231.894C95.1058 221.533 95 218.235 95 191.895C95 165.547 95.1146 162.249 95.582 151.914C96.0494 141.579 97.6984 134.525 100.088 128.352C102.528 121.88 106.35 116.018 111.287 111.175C116.129 106.241 121.988 102.422 128.456 99.9845C134.629 97.5948 141.692 95.9547 152.01 95.4785ZM231.197 112.938C220.968 112.471 217.899 112.374 192 112.374C166.101 112.374 163.032 112.471 152.803 112.938C143.341 113.37 138.209 114.949 134.788 116.28C130.264 118.044 127.028 120.134 123.633 123.529C120.414 126.66 117.938 130.471 116.384 134.684C115.053 138.105 113.474 143.237 113.042 152.699C112.575 162.928 112.478 165.996 112.478 191.895C112.478 217.794 112.575 220.862 113.042 231.091C113.474 240.553 115.053 245.685 116.384 249.107C117.936 253.313 120.414 257.131 123.633 260.261C126.763 263.48 130.581 265.958 134.788 267.51C138.209 268.841 143.341 270.42 152.803 270.852C163.032 271.319 166.092 271.416 192 271.416C217.908 271.416 220.968 271.319 231.197 270.852C240.659 270.42 245.791 268.841 249.212 267.51C253.736 265.746 256.972 263.656 260.367 260.261C263.586 257.131 266.064 253.313 267.616 249.107C268.947 245.685 270.526 240.553 270.958 231.091C271.425 220.862 271.522 217.794 271.522 191.895C271.522 165.996 271.425 162.928 270.958 152.699C270.526 143.237 268.947 138.105 267.616 134.684C265.852 130.16 263.762 126.924 260.367 123.529C257.236 120.311 253.425 117.834 249.212 116.28C245.791 114.949 240.659 113.37 231.197 112.938ZM179.61 221.797C186.53 224.677 194.234 225.066 201.408 222.897C208.582 220.728 214.781 216.135 218.945 209.904C223.109 203.672 224.98 196.188 224.24 188.73C223.499 181.272 220.192 174.303 214.883 169.012C211.499 165.63 207.407 163.041 202.902 161.43C198.397 159.819 193.591 159.227 188.83 159.697C184.069 160.167 179.471 161.686 175.367 164.146C171.264 166.606 167.757 169.945 165.098 173.923C162.44 177.9 160.697 182.418 159.995 187.151C159.292 191.883 159.647 196.712 161.035 201.291C162.423 205.869 164.809 210.083 168.021 213.629C171.233 217.175 175.191 219.965 179.61 221.797ZM156.745 156.64C161.375 152.011 166.871 148.338 172.92 145.833C178.969 143.327 185.453 142.038 192 142.038C198.547 142.038 205.031 143.327 211.08 145.833C217.129 148.338 222.625 152.011 227.255 156.64C231.885 161.27 235.557 166.766 238.063 172.815C240.569 178.864 241.858 185.348 241.858 191.895C241.858 198.442 240.569 204.926 238.063 210.975C235.557 217.024 231.885 222.52 227.255 227.15C217.905 236.5 205.223 241.753 192 241.753C178.777 241.753 166.095 236.5 156.745 227.15C147.395 217.8 142.142 205.118 142.142 191.895C142.142 178.672 147.395 165.991 156.745 156.64ZM252.916 149.463C254.063 148.38 254.982 147.079 255.617 145.635C256.252 144.192 256.592 142.635 256.615 141.058C256.637 139.481 256.344 137.916 255.751 136.454C255.158 134.993 254.278 133.665 253.163 132.55C252.047 131.435 250.72 130.555 249.258 129.962C247.797 129.369 246.231 129.075 244.654 129.098C243.077 129.121 241.521 129.46 240.077 130.095C238.633 130.731 237.332 131.649 236.25 132.796C234.145 135.028 232.992 137.991 233.037 141.058C233.082 144.125 234.32 147.054 236.489 149.223C238.658 151.392 241.587 152.63 244.654 152.675C247.721 152.72 250.685 151.567 252.916 149.463Z" fill="white"/>
</svg>
