<svg width="384" height="384" viewBox="0 0 384 384" fill="none" xmlns="http://www.w3.org/2000/svg">
<rect width="384" height="383.99" rx="45" fill="#AD8E50"/>
<path d="M192 66.9922C167.876 67.0258 144.749 76.6345 127.691 93.7114C110.632 110.788 101.033 133.94 101 158.091C101 206.563 183.535 310.204 187.048 314.61C187.643 315.352 188.397 315.952 189.254 316.363C190.111 316.775 191.049 316.988 192 316.988C192.951 316.988 193.889 316.775 194.746 316.363C195.603 315.952 196.357 315.352 196.952 314.61C200.465 310.204 283 206.563 283 158.091C282.967 133.94 273.368 110.788 256.309 93.7114C239.251 76.6345 216.124 67.0258 192 66.9922ZM192 212.283C181.293 212.283 170.827 209.105 161.925 203.15C153.022 197.195 146.084 188.732 141.986 178.829C137.889 168.927 136.817 158.03 138.906 147.518C140.995 137.006 146.15 127.349 153.721 119.77C161.292 112.191 170.938 107.03 181.439 104.939C191.94 102.848 202.825 103.921 212.716 108.023C222.608 112.124 231.063 119.071 237.011 127.983C242.96 136.895 246.134 147.372 246.134 158.091C246.112 172.457 240.401 186.228 230.254 196.386C220.107 206.544 206.35 212.261 192 212.283Z" fill="white"/>
</svg>
