<svg width="384" height="384" viewBox="0 0 384 384" fill="none" xmlns="http://www.w3.org/2000/svg">
<rect width="384" height="383.99" rx="45" fill="#AD8E50"/>
<path d="M192 66.9912C167.876 67.0249 144.749 76.6335 127.691 93.7104C110.632 110.787 101.033 133.939 101 158.09C101 206.562 183.535 310.203 187.048 314.609C187.643 315.352 188.397 315.951 189.254 316.362C190.111 316.774 191.049 316.987 192 316.987C192.951 316.987 193.889 316.774 194.746 316.362C195.603 315.951 196.357 315.352 196.952 314.609C200.465 310.203 283 206.562 283 158.09C282.967 133.939 273.368 110.787 256.309 93.7104C239.251 76.6335 216.124 67.0249 192 66.9912ZM192 212.282C181.293 212.282 170.827 209.104 161.925 203.149C153.022 197.194 146.084 188.731 141.986 178.828C137.889 168.926 136.817 158.029 138.906 147.517C140.995 137.005 146.15 127.348 153.721 119.769C161.292 112.19 170.938 107.029 181.439 104.938C191.94 102.847 202.825 103.92 212.716 108.022C222.608 112.123 231.063 119.07 237.011 127.982C242.96 136.894 246.134 147.371 246.134 158.09C246.112 172.456 240.401 186.227 230.254 196.385C220.107 206.543 206.35 212.26 192 212.282Z" fill="white"/>
</svg>
