<svg width="384" height="384" viewBox="0 0 384 384" fill="none" xmlns="http://www.w3.org/2000/svg">
<ellipse cx="192" cy="191.989" rx="192" ry="191.997" fill="#706F74"/>
<path d="M286.249 106.993H97.4444C92.0222 106.993 86.8221 109.141 82.988 112.965C79.154 116.789 77 121.975 77 127.382V256.599C77 262.007 79.154 267.193 82.988 271.016C86.8221 274.84 92.0222 276.988 97.4444 276.988H286.555C291.978 276.988 297.178 274.84 301.012 271.016C304.846 267.193 307 262.007 307 256.599V127.433C307.007 124.725 306.473 122.043 305.43 119.544C304.386 117.044 302.854 114.776 300.922 112.874C298.99 110.971 296.698 109.471 294.179 108.461C291.659 107.451 288.964 106.952 286.249 106.993ZM163.582 200.783L103.22 265.927C102.794 266.383 102.281 266.75 101.71 267.003C101.139 267.257 100.523 267.394 99.8978 267.405C98.7716 267.403 97.6904 266.964 96.8822 266.182C96.4377 265.793 96.0753 265.32 95.8161 264.791C95.557 264.261 95.4064 263.685 95.3731 263.096C95.3398 262.508 95.4245 261.919 95.6221 261.363C95.8198 260.808 96.1266 260.297 96.5244 259.861L156.989 194.667C157.831 193.832 158.971 193.364 160.158 193.364C161.345 193.364 162.484 193.832 163.327 194.667C164.161 195.451 164.655 196.53 164.702 197.673C164.75 198.816 164.348 199.932 163.582 200.783ZM102.76 127.178C102.313 126.79 101.949 126.316 101.69 125.784C101.432 125.252 101.284 124.674 101.255 124.083C101.226 123.493 101.318 122.903 101.524 122.348C101.73 121.794 102.046 121.287 102.453 120.858C102.85 120.421 103.33 120.068 103.864 119.819C104.399 119.569 104.979 119.429 105.569 119.405C106.159 119.381 106.747 119.475 107.301 119.681C107.854 119.886 108.361 120.2 108.791 120.603L191.438 194.004L274.8 119.43C275.695 118.619 276.876 118.196 278.083 118.253C279.291 118.311 280.427 118.844 281.24 119.736C282.053 120.629 282.478 121.806 282.42 123.011C282.363 124.215 281.828 125.348 280.933 126.159L191.438 205.881L102.76 127.178ZM283.489 266.182C282.681 266.964 281.599 267.403 280.473 267.405C279.848 267.394 279.232 267.257 278.661 267.003C278.09 266.75 277.577 266.383 277.151 265.927L216.789 200.783C216.362 200.374 216.023 199.884 215.791 199.341C215.559 198.798 215.439 198.213 215.439 197.623C215.439 197.033 215.559 196.449 215.791 195.906C216.023 195.363 216.362 194.872 216.789 194.463C217.631 193.629 218.77 193.16 219.958 193.16C221.145 193.16 222.284 193.629 223.127 194.463L283.847 259.861C284.251 260.294 284.564 260.804 284.765 261.36C284.967 261.916 285.054 262.507 285.02 263.098C284.987 263.688 284.834 264.266 284.571 264.796C284.308 265.326 283.94 265.797 283.489 266.182Z" fill="#12223C"/>
</svg>
