<svg width="384" height="384" viewBox="0 0 384 384" fill="none" xmlns="http://www.w3.org/2000/svg">
<rect width="384" height="383.99" rx="45" fill="#AD8E50"/>
<path d="M286.249 106.993H97.4444C92.0222 106.993 86.8221 109.141 82.988 112.964C79.154 116.788 77 121.974 77 127.382V256.598C77 262.006 79.154 267.192 82.988 271.016C86.8221 274.84 92.0222 276.988 97.4444 276.988H286.555C291.978 276.988 297.178 274.84 301.012 271.016C304.846 267.192 307 262.006 307 256.598V127.433C307.007 124.725 306.473 122.043 305.43 119.543C304.386 117.043 302.854 114.776 300.922 112.873C298.99 110.97 296.698 109.47 294.179 108.461C291.659 107.451 288.964 106.952 286.249 106.993ZM163.582 200.783L103.22 265.927C102.794 266.383 102.281 266.749 101.71 267.003C101.139 267.257 100.523 267.394 99.8978 267.405C98.7716 267.402 97.6904 266.964 96.8822 266.181C96.4377 265.793 96.0753 265.32 95.8161 264.79C95.557 264.26 95.4064 263.684 95.3731 263.096C95.3398 262.507 95.4245 261.918 95.6221 261.363C95.8198 260.807 96.1266 260.297 96.5244 259.861L156.989 194.666C157.831 193.832 158.971 193.364 160.158 193.364C161.345 193.364 162.484 193.832 163.327 194.666C164.161 195.451 164.655 196.53 164.702 197.673C164.75 198.816 164.348 199.932 163.582 200.783ZM102.76 127.178C102.313 126.79 101.949 126.316 101.69 125.784C101.432 125.252 101.284 124.673 101.255 124.083C101.226 123.492 101.318 122.902 101.524 122.348C101.73 121.794 102.046 121.286 102.453 120.857C102.85 120.421 103.33 120.068 103.864 119.818C104.399 119.569 104.979 119.428 105.569 119.405C106.159 119.381 106.747 119.475 107.301 119.68C107.854 119.886 108.361 120.199 108.791 120.602L191.438 194.004L274.8 119.43C275.695 118.619 276.876 118.195 278.083 118.253C279.291 118.31 280.427 118.844 281.24 119.736C282.053 120.628 282.478 121.806 282.42 123.01C282.363 124.215 281.828 125.347 280.933 126.158L191.438 205.88L102.76 127.178ZM283.489 266.181C282.681 266.964 281.599 267.402 280.473 267.405C279.848 267.394 279.232 267.257 278.661 267.003C278.09 266.749 277.577 266.383 277.151 265.927L216.789 200.783C216.362 200.374 216.023 199.883 215.791 199.34C215.559 198.797 215.439 198.213 215.439 197.623C215.439 197.032 215.559 196.448 215.791 195.905C216.023 195.362 216.362 194.871 216.789 194.462C217.631 193.628 218.77 193.16 219.958 193.16C221.145 193.16 222.284 193.628 223.127 194.462L283.847 259.861C284.251 260.293 284.564 260.803 284.765 261.359C284.967 261.916 285.054 262.507 285.02 263.097C284.987 263.688 284.834 264.265 284.571 264.795C284.308 265.325 283.94 265.797 283.489 266.181Z" fill="white"/>
</svg>
