<svg width="384" height="384" viewBox="0 0 384 384" fill="none" xmlns="http://www.w3.org/2000/svg">
<rect width="384" height="383.99" rx="45" fill="#AD8E50"/>
<path d="M147.283 114.998L196.478 191.292C220.485 152.962 232.651 133.431 232.977 132.698C234.93 128.141 234.523 124.764 231.756 122.566C229.07 120.369 224.147 118.945 216.985 118.294L216.497 115.975C231.146 114.591 242.05 114.998 249.212 117.195C249.863 117.521 250.27 118.009 250.433 118.66C250.595 119.23 250.555 119.759 250.311 120.247C248.602 123.665 246.282 127.815 243.353 132.698C240.423 137.581 226.385 159.513 201.238 198.494L247.503 269.539C249.619 272.713 251.816 275.48 254.095 277.84C256.373 280.118 258.855 282.031 261.541 283.577C264.308 285.123 266.668 286.303 268.621 287.117C270.574 287.931 273.219 288.908 276.556 290.047V292.488C260.117 291.512 247.951 292.163 240.057 294.441L238.226 293.465C238.551 290.21 237.208 286.303 234.197 281.746L186.224 208.016L139.227 277.229C136.948 280.485 137.111 283.13 139.715 285.164C142.4 287.117 148.26 288.989 157.293 290.779L156.805 292.977C142.563 291.919 130.966 291.593 122.015 292C121.445 291.43 120.957 290.617 120.55 289.559L180.975 199.959L143.987 142.952C141.058 138.802 138.535 135.669 136.419 133.553C134.384 131.355 132.35 129.809 130.315 128.914C128.362 127.938 126.246 127.449 123.968 127.449C121.771 127.368 119.044 127.368 115.789 127.449V125.252C118.8 123.706 121.608 122.322 124.212 121.102C126.897 119.799 129.502 118.701 132.024 117.806C134.547 116.91 137.029 116.219 139.471 115.73C141.993 115.242 144.598 114.998 147.283 114.998Z" fill="white"/>
</svg>
