<svg width="384" height="385" viewBox="0 0 384 385" fill="none" xmlns="http://www.w3.org/2000/svg">
<ellipse cx="192" cy="192.895" rx="192" ry="191.997" fill="#706F74"/>
<path d="M147.283 115.998L196.478 192.292C220.485 153.962 232.651 134.431 232.977 133.698C234.93 129.141 234.523 125.764 231.756 123.566C229.07 121.369 224.147 119.945 216.985 119.294L216.497 116.975C231.146 115.591 242.05 115.998 249.212 118.195C249.863 118.521 250.27 119.009 250.433 119.66C250.595 120.23 250.555 120.759 250.311 121.247C248.602 124.665 246.282 128.815 243.353 133.698C240.423 138.581 226.385 160.513 201.238 199.494L247.503 270.539C249.619 273.713 251.816 276.48 254.095 278.84C256.373 281.118 258.855 283.031 261.541 284.577C264.308 286.123 266.668 287.303 268.621 288.117C270.574 288.931 273.219 289.908 276.556 291.047V293.488C260.117 292.512 247.951 293.163 240.057 295.441L238.226 294.465C238.551 291.21 237.208 287.303 234.197 282.746L186.224 209.016L139.227 278.229C136.948 281.485 137.111 284.13 139.715 286.164C142.4 288.117 148.26 289.989 157.293 291.779L156.805 293.977C142.563 292.919 130.966 292.593 122.015 293C121.445 292.43 120.957 291.617 120.55 290.559L180.975 200.959L143.987 143.952C141.058 139.802 138.535 136.669 136.419 134.553C134.384 132.355 132.35 130.809 130.315 129.914C128.362 128.938 126.246 128.449 123.968 128.449C121.771 128.368 119.044 128.368 115.789 128.449V126.252C118.8 124.706 121.608 123.322 124.212 122.102C126.897 120.799 129.502 119.701 132.024 118.806C134.547 117.91 137.029 117.219 139.471 116.73C141.993 116.242 144.598 115.998 147.283 115.998Z" fill="#12223C"/>
</svg>
