<svg width="384" height="384" viewBox="0 0 384 384" fill="none" xmlns="http://www.w3.org/2000/svg">
<rect width="384" height="383.99" rx="45" fill="black"/>
<path d="M286.689 252.186C309.808 218.085 309.732 166.364 286.689 132.262C243.569 63.7556 140.826 63.7935 97.7054 132.262C74.13 166.478 74.13 218.312 97.5153 252.527C140.636 321.034 243.379 320.996 286.499 252.527C286.577 252.422 286.64 252.308 286.689 252.186ZM91.4313 198.078H124.969C125.318 213.481 127.709 228.77 132.08 243.547H105.462C97.1677 229.743 92.3533 214.142 91.4313 198.078ZM105.348 141.242H131.966C127.595 156.02 125.204 171.309 124.855 186.711H91.4313C92.3186 170.658 97.0936 155.057 105.348 141.242ZM292.583 186.711H259.045C258.696 171.309 256.305 156.02 251.934 141.242H278.552C286.847 155.046 291.661 170.648 292.583 186.711ZM247.638 186.711H214.138C214.138 175.344 213.643 158.407 212.236 141.242H239.69C244.529 155.937 247.205 171.252 247.638 186.711ZM183.337 243.547C182.197 230.513 181.436 215.205 181.322 198.078H202.692C202.692 215.205 201.818 230.513 200.677 243.547H183.337ZM199.498 254.915C197.369 273.254 194.555 285.833 191.893 291.025C189.345 285.833 186.532 273.254 184.288 254.915H199.498ZM181.322 186.711C181.322 169.585 182.197 154.277 183.337 141.242H200.677C201.818 154.277 202.578 169.585 202.692 186.711H181.322ZM184.516 129.875C186.646 111.536 189.459 98.9562 192.121 93.7651C194.669 98.9562 197.483 111.536 199.726 129.875H184.516ZM211.134 129.875C210.095 117.876 207.762 106.024 204.175 94.523C216.495 99.714 227.408 112.483 235.241 129.875H211.134ZM179.839 94.523C176.291 106.028 173.996 117.88 172.995 129.875H148.773C156.606 112.483 167.519 99.714 179.839 94.523ZM171.778 141.242C170.371 158.407 169.991 175.344 169.877 186.711H136.377C136.809 171.252 139.486 155.937 144.324 141.242H171.778ZM136.377 198.078H169.877C169.877 209.446 170.371 226.383 171.778 243.547H144.324C139.486 228.853 136.809 213.538 136.377 198.078ZM172.881 254.915C173.919 266.914 176.252 278.766 179.839 290.267C167.519 285.076 156.606 272.306 148.773 254.915H172.881ZM204.175 290.267C207.724 278.762 210.018 266.909 211.02 254.915H235.127C227.408 272.306 216.495 285.076 204.175 290.267ZM212.236 243.547C213.643 226.383 214.024 209.446 214.138 198.078H247.638C247.205 213.538 244.529 228.853 239.69 243.547H212.236ZM259.045 198.078H292.583C291.696 214.132 286.921 229.733 278.666 243.547H252.048C256.381 228.764 258.733 213.476 259.045 198.078ZM270.757 129.875H247.942C243.666 118.677 237.45 108.314 229.576 99.2593C245.715 105.768 259.898 116.313 270.757 129.875ZM154.401 99.2593C146.527 108.314 140.31 118.677 136.035 129.875H113.22C124.078 116.313 138.261 105.768 154.401 99.2593ZM113.258 254.915H136.073C140.348 266.113 146.565 276.476 154.439 285.53C138.299 279.021 124.116 268.477 113.258 254.915ZM229.614 285.53C237.488 276.476 243.704 266.113 247.98 254.915H270.795C259.936 268.477 245.753 279.021 229.614 285.53Z" fill="white"/>
</svg>
