<svg width="4320" height="7680" viewBox="0 0 4320 7680" fill="none" xmlns="http://www.w3.org/2000/svg">
<g clip-path="url(#clip0_356_935)">
<rect width="4320" height="7680" fill="#001F00"/>
<rect x="1041" y="4133" width="2239" height="394" rx="100" fill="#AD8E50"/>
<path d="M1445.26 4390.76C1445.38 4391.48 1445.44 4392.2 1445.44 4392.92C1445.56 4393.52 1445.62 4394.24 1445.62 4395.08C1445.62 4396.52 1445.2 4397.84 1444.36 4399.04C1444 4399.64 1443.52 4400.24 1442.92 4400.84C1442.32 4401.32 1441.6 4401.74 1440.76 4402.1C1437.76 4403.78 1434.58 4404.38 1431.22 4403.9C1429.54 4403.42 1428.04 4402.64 1426.72 4401.56C1426.48 4401.32 1426.3 4401.2 1426.18 4401.2C1426.06 4401.08 1425.94 4400.9 1425.82 4400.66C1425.7 4400.54 1425.58 4400.42 1425.46 4400.3C1425.34 4400.06 1425.16 4399.88 1424.92 4399.76C1424.32 4399.16 1423.84 4398.62 1423.48 4398.14C1423.12 4397.54 1422.76 4396.94 1422.4 4396.34C1422.16 4395.74 1421.86 4395.2 1421.5 4394.72C1421.26 4394.12 1420.96 4393.52 1420.6 4392.92C1420.36 4392.44 1420.12 4392.02 1419.88 4391.66C1419.64 4391.18 1419.46 4390.7 1419.34 4390.22C1418.86 4389.14 1418.56 4388.18 1418.44 4387.34L1414.66 4378.52C1406.38 4378.52 1398.1 4378.58 1389.82 4378.7C1381.66 4378.7 1373.44 4378.64 1365.16 4378.52L1361.38 4387.34C1361.14 4387.82 1360.96 4388.3 1360.84 4388.78C1360.84 4389.26 1360.72 4389.74 1360.48 4390.22C1360.24 4390.7 1360 4391.18 1359.76 4391.66C1359.64 4392.02 1359.46 4392.44 1359.22 4392.92C1358.86 4393.52 1358.5 4394.12 1358.14 4394.72C1357.9 4395.2 1357.6 4395.74 1357.24 4396.34C1357 4396.94 1356.7 4397.54 1356.34 4398.14C1355.98 4398.62 1355.5 4399.16 1354.9 4399.76C1354.66 4399.88 1354.48 4400.06 1354.36 4400.3C1354.24 4400.42 1354.12 4400.54 1354 4400.66C1353.88 4400.9 1353.76 4401.08 1353.64 4401.2C1353.52 4401.2 1353.34 4401.32 1353.1 4401.56C1351.78 4402.64 1350.28 4403.42 1348.6 4403.9C1345.24 4404.38 1342.06 4403.78 1339.06 4402.1C1338.22 4401.74 1337.5 4401.32 1336.9 4400.84C1336.3 4400.24 1335.82 4399.64 1335.46 4399.04C1334.62 4397.84 1334.2 4396.52 1334.2 4395.08C1334.2 4394.24 1334.2 4393.52 1334.2 4392.92C1334.32 4392.2 1334.44 4391.48 1334.56 4390.76C1334.8 4389.68 1335.1 4388.6 1335.46 4387.52C1335.82 4386.44 1336 4385.9 1336 4385.9L1373.44 4293.74L1374.52 4290.86C1374.76 4290.14 1375.06 4289.48 1375.42 4288.88C1375.78 4288.28 1376.08 4287.56 1376.32 4286.72C1376.92 4285.16 1377.58 4283.78 1378.3 4282.58C1378.66 4281.86 1379.08 4281.2 1379.56 4280.6C1380.04 4280 1380.52 4279.4 1381 4278.8C1381.72 4277.84 1382.74 4277.06 1384.06 4276.46C1385.74 4275.86 1387.66 4275.56 1389.82 4275.56C1392.1 4275.56 1394.08 4275.86 1395.76 4276.46C1397.08 4277.06 1398.1 4277.84 1398.82 4278.8C1399.66 4279.88 1400.56 4281.14 1401.52 4282.58C1402.24 4283.78 1402.9 4285.16 1403.5 4286.72C1403.74 4287.56 1404.04 4288.28 1404.4 4288.88C1404.76 4289.48 1405.06 4290.14 1405.3 4290.86L1406.38 4293.74L1443.82 4385.9C1443.82 4385.9 1444 4386.44 1444.36 4387.52C1444.72 4388.6 1445.02 4389.68 1445.26 4390.76ZM1402.6 4346.66C1401.04 4343.18 1399.42 4339.58 1397.74 4335.86C1396.18 4332.14 1394.5 4328.36 1392.7 4324.52C1392.22 4323.44 1391.74 4322.36 1391.26 4321.28C1390.78 4320.08 1390.3 4318.94 1389.82 4317.86C1389.46 4318.94 1389.04 4320.08 1388.56 4321.28C1388.08 4322.36 1387.6 4323.44 1387.12 4324.52C1385.32 4328.36 1383.58 4332.14 1381.9 4335.86C1380.34 4339.58 1378.78 4343.18 1377.22 4346.66L1373.98 4354.58H1405.84L1402.6 4346.66ZM1554.74 4330.64C1554.98 4334.6 1554.92 4338.68 1554.56 4342.88C1554.32 4347.08 1553.9 4351.16 1553.3 4355.12C1552.1 4361.96 1549.88 4368.62 1546.64 4375.1C1543.4 4381.58 1538.66 4387.1 1532.42 4391.66C1525.94 4396.46 1518.56 4399.76 1510.28 4401.56C1502 4403.24 1493.78 4404.26 1485.62 4404.62C1482.86 4404.86 1480.04 4404.92 1477.16 4404.8C1474.4 4404.8 1471.7 4404.5 1469.06 4403.9C1466.9 4403.54 1465.28 4402.88 1464.2 4401.92C1463.6 4401.56 1463.12 4401.08 1462.76 4400.48C1462.4 4399.88 1462.1 4399.28 1461.86 4398.68C1461.5 4398.08 1461.2 4397.48 1460.96 4396.88C1460.84 4396.16 1460.66 4395.44 1460.42 4394.72C1460.3 4394.12 1460.18 4393.58 1460.06 4393.1C1460.06 4392.5 1460.06 4391.96 1460.06 4391.48V4288.7C1460.06 4287.86 1460.06 4287.08 1460.06 4286.36C1460.06 4285.64 1460.18 4284.92 1460.42 4284.2C1460.66 4282.52 1461.02 4281.14 1461.5 4280.06C1461.98 4278.62 1462.64 4277.6 1463.48 4277C1464.2 4276.4 1464.92 4275.98 1465.64 4275.74C1466.36 4275.38 1467.02 4275.08 1467.62 4274.84C1468.34 4274.6 1469.06 4274.6 1469.78 4274.84C1470.62 4274.96 1471.52 4274.78 1472.48 4274.3L1502.54 4275.02C1510.46 4275.26 1517.54 4277.12 1523.78 4280.6C1530.02 4283.96 1535.36 4288.28 1539.8 4293.56C1544.24 4298.84 1547.72 4304.78 1550.24 4311.38C1552.76 4317.86 1554.26 4324.28 1554.74 4330.64ZM1521.26 4364.84C1523.54 4361.24 1525.22 4357.1 1526.3 4352.42C1527.38 4347.74 1527.86 4343 1527.74 4338.2C1527.62 4333.28 1526.96 4328.54 1525.76 4323.98C1524.56 4319.3 1522.88 4315.16 1520.72 4311.56C1519.04 4308.92 1516.88 4306.76 1514.24 4305.08C1511.6 4303.4 1508.66 4302.14 1505.42 4301.3C1502.18 4300.34 1498.7 4299.68 1494.98 4299.32C1491.38 4298.96 1487.84 4298.78 1484.36 4298.78C1484.48 4302.26 1484.54 4305.62 1484.54 4308.86C1484.54 4312.1 1484.54 4315.52 1484.54 4319.12C1484.42 4323.44 1484.36 4327.64 1484.36 4331.72C1484.36 4335.8 1484.36 4339.76 1484.36 4343.6V4380.32C1488.08 4380.2 1491.62 4380.02 1494.98 4379.78C1498.46 4379.42 1501.76 4378.7 1504.88 4377.62C1508.12 4376.54 1511.06 4375.04 1513.7 4373.12C1516.46 4371.08 1518.98 4368.32 1521.26 4364.84ZM1664.25 4330.64C1664.49 4334.6 1664.43 4338.68 1664.07 4342.88C1663.83 4347.08 1663.41 4351.16 1662.81 4355.12C1661.61 4361.96 1659.39 4368.62 1656.15 4375.1C1652.91 4381.58 1648.17 4387.1 1641.93 4391.66C1635.45 4396.46 1628.07 4399.76 1619.79 4401.56C1611.51 4403.24 1603.29 4404.26 1595.13 4404.62C1592.37 4404.86 1589.55 4404.92 1586.67 4404.8C1583.91 4404.8 1581.21 4404.5 1578.57 4403.9C1576.41 4403.54 1574.79 4402.88 1573.71 4401.92C1573.11 4401.56 1572.63 4401.08 1572.27 4400.48C1571.91 4399.88 1571.61 4399.28 1571.37 4398.68C1571.01 4398.08 1570.71 4397.48 1570.47 4396.88C1570.35 4396.16 1570.17 4395.44 1569.93 4394.72C1569.81 4394.12 1569.69 4393.58 1569.57 4393.1C1569.57 4392.5 1569.57 4391.96 1569.57 4391.48V4288.7C1569.57 4287.86 1569.57 4287.08 1569.57 4286.36C1569.57 4285.64 1569.69 4284.92 1569.93 4284.2C1570.17 4282.52 1570.53 4281.14 1571.01 4280.06C1571.49 4278.62 1572.15 4277.6 1572.99 4277C1573.71 4276.4 1574.43 4275.98 1575.15 4275.74C1575.87 4275.38 1576.53 4275.08 1577.13 4274.84C1577.85 4274.6 1578.57 4274.6 1579.29 4274.84C1580.13 4274.96 1581.03 4274.78 1581.99 4274.3L1612.05 4275.02C1619.97 4275.26 1627.05 4277.12 1633.29 4280.6C1639.53 4283.96 1644.87 4288.28 1649.31 4293.56C1653.75 4298.84 1657.23 4304.78 1659.75 4311.38C1662.27 4317.86 1663.77 4324.28 1664.25 4330.64ZM1630.77 4364.84C1633.05 4361.24 1634.73 4357.1 1635.81 4352.42C1636.89 4347.74 1637.37 4343 1637.25 4338.2C1637.13 4333.28 1636.47 4328.54 1635.27 4323.98C1634.07 4319.3 1632.39 4315.16 1630.23 4311.56C1628.55 4308.92 1626.39 4306.76 1623.75 4305.08C1621.11 4303.4 1618.17 4302.14 1614.93 4301.3C1611.69 4300.34 1608.21 4299.68 1604.49 4299.32C1600.89 4298.96 1597.35 4298.78 1593.87 4298.78C1593.99 4302.26 1594.05 4305.62 1594.05 4308.86C1594.05 4312.1 1594.05 4315.52 1594.05 4319.12C1593.93 4323.44 1593.87 4327.64 1593.87 4331.72C1593.87 4335.8 1593.87 4339.76 1593.87 4343.6V4380.32C1597.59 4380.2 1601.13 4380.02 1604.49 4379.78C1607.97 4379.42 1611.27 4378.7 1614.39 4377.62C1617.63 4376.54 1620.57 4375.04 1623.21 4373.12C1625.97 4371.08 1628.49 4368.32 1630.77 4364.84ZM1825.2 4281.14C1826.52 4282.7 1827.18 4284.32 1827.18 4286C1827.18 4286.72 1827.12 4287.5 1827 4288.34C1827 4289.06 1826.94 4289.72 1826.82 4290.32C1826.46 4291.64 1825.68 4292.9 1824.48 4294.1C1823.52 4294.82 1822.2 4295.36 1820.52 4295.72C1819.68 4295.96 1818.84 4296.14 1818 4296.26C1817.16 4296.38 1816.26 4296.56 1815.3 4296.8C1814.46 4296.92 1813.62 4296.98 1812.78 4296.98C1811.94 4296.98 1811.04 4296.98 1810.08 4296.98H1800.9C1798.74 4297.1 1796.58 4297.16 1794.42 4297.16C1792.38 4297.16 1790.34 4297.16 1788.3 4297.16C1788.42 4300.88 1788.48 4304.9 1788.48 4309.22C1788.48 4313.42 1788.42 4318.34 1788.3 4323.98C1788.3 4329.62 1788.24 4336.16 1788.12 4343.6C1788.12 4351.04 1788.12 4359.68 1788.12 4369.52V4383.2C1788.12 4384.4 1788.18 4385.3 1788.3 4385.9C1788.3 4386.38 1788.3 4386.86 1788.3 4387.34C1788.3 4387.7 1788.24 4388.18 1788.12 4388.78C1787.88 4389.86 1787.7 4391.12 1787.58 4392.56C1787.58 4393.16 1787.52 4393.76 1787.4 4394.36C1787.28 4394.84 1787.1 4395.38 1786.86 4395.98C1786.38 4396.46 1786.14 4396.82 1786.14 4397.06L1785.6 4398.14C1785 4399.34 1783.86 4400.48 1782.18 4401.56C1779.54 4402.88 1776.6 4403.18 1773.36 4402.46C1771.32 4402.22 1769.76 4401.68 1768.68 4400.84C1767.6 4399.76 1766.82 4398.68 1766.34 4397.6C1765.62 4396.28 1765.2 4395.02 1765.08 4393.82C1764.72 4392.74 1764.54 4391.6 1764.54 4390.4V4297.88C1763.82 4297.88 1762.32 4297.88 1760.04 4297.88C1757.76 4297.88 1755.3 4297.88 1752.66 4297.88C1750.14 4297.76 1747.74 4297.64 1745.46 4297.52C1743.18 4297.4 1741.62 4297.28 1740.78 4297.16C1740.06 4297.04 1738.92 4296.86 1737.36 4296.62C1735.92 4296.38 1734.72 4296.14 1733.76 4295.9C1731.24 4295.18 1729.26 4294.04 1727.82 4292.48C1726.5 4290.92 1725.84 4289.18 1725.84 4287.26C1725.84 4286.54 1725.84 4285.82 1725.84 4285.1C1725.84 4284.38 1725.96 4283.72 1726.2 4283.12C1726.56 4281.68 1727.52 4280.48 1729.08 4279.52C1729.56 4279.16 1730.28 4278.74 1731.24 4278.26C1732.32 4277.66 1733.34 4277.24 1734.3 4277C1735.74 4276.52 1737.54 4276.16 1739.7 4275.92C1740.66 4275.8 1741.62 4275.74 1742.58 4275.74C1743.54 4275.74 1744.56 4275.74 1745.64 4275.74C1749.84 4275.74 1753.8 4275.74 1757.52 4275.74C1761.36 4275.74 1765.38 4275.68 1769.58 4275.56C1776.54 4275.44 1783.44 4275.44 1790.28 4275.56C1797.24 4275.56 1804.14 4275.68 1810.98 4275.92C1812.54 4276.04 1814.04 4276.22 1815.48 4276.46C1816.92 4276.7 1818.36 4277.12 1819.8 4277.72C1820.88 4278.08 1821.9 4278.56 1822.86 4279.16C1823.82 4279.64 1824.6 4280.3 1825.2 4281.14ZM1862.64 4279.88C1870.68 4276.88 1877.94 4275.56 1884.42 4275.92C1891.02 4276.28 1896.9 4277.96 1902.06 4280.96C1907.22 4283.84 1911.6 4287.74 1915.2 4292.66C1918.92 4297.58 1921.92 4303.1 1924.2 4309.22C1926 4313.78 1927.38 4318.58 1928.34 4323.62C1929.3 4328.66 1929.84 4333.7 1929.96 4338.74C1930.2 4343.66 1930.02 4348.52 1929.42 4353.32C1928.94 4358.12 1928.1 4362.56 1926.9 4366.64C1926.18 4369.4 1925.34 4371.92 1924.38 4374.2C1923.42 4376.48 1922.28 4378.76 1920.96 4381.04C1917.96 4386.2 1914.06 4390.4 1909.26 4393.64C1904.58 4396.88 1899.42 4399.16 1893.78 4400.48C1889.94 4401.44 1885.98 4401.92 1881.9 4401.92C1877.82 4401.8 1873.8 4401.26 1869.84 4400.3C1865.88 4399.22 1862.04 4397.72 1858.32 4395.8C1854.72 4393.76 1851.42 4391.24 1848.42 4388.24C1844.7 4384.64 1841.64 4380.5 1839.24 4375.82C1836.84 4371.02 1834.98 4366.04 1833.66 4360.88C1832.34 4355.6 1831.5 4350.32 1831.14 4345.04C1830.78 4339.76 1830.78 4334.72 1831.14 4329.92C1831.5 4325.48 1832.34 4320.74 1833.66 4315.7C1835.1 4310.66 1837.14 4305.8 1839.78 4301.12C1842.42 4296.44 1845.6 4292.24 1849.32 4288.52C1853.16 4284.68 1857.6 4281.8 1862.64 4279.88ZM1904.76 4356.92C1906.2 4351.28 1906.8 4344.92 1906.56 4337.84C1906.32 4330.76 1905.18 4324.1 1903.14 4317.86C1901.82 4314.02 1900.14 4310.66 1898.1 4307.78C1896.18 4304.78 1893.84 4302.5 1891.08 4300.94C1888.44 4299.38 1885.32 4298.6 1881.72 4298.6C1878.12 4298.6 1874.1 4299.68 1869.66 4301.84C1867.02 4303.16 1864.74 4304.96 1862.82 4307.24C1861.02 4309.52 1859.52 4312.1 1858.32 4314.98C1857.24 4317.86 1856.34 4320.86 1855.62 4323.98C1855.02 4327.1 1854.66 4330.1 1854.54 4332.98C1854.3 4336.1 1854.24 4339.4 1854.36 4342.88C1854.48 4346.24 1854.84 4349.66 1855.44 4353.14C1856.16 4356.5 1857.12 4359.74 1858.32 4362.86C1859.52 4365.86 1861.14 4368.56 1863.18 4370.96C1866.3 4374.56 1869.9 4377.08 1873.98 4378.52C1878.18 4379.84 1882.32 4380.02 1886.4 4379.06C1893 4377.62 1898.04 4373.24 1901.52 4365.92C1902.96 4363.28 1904.04 4360.28 1904.76 4356.92ZM2087.03 4372.76C2088.59 4376.24 2088.65 4379.66 2087.21 4383.02C2085.77 4386.26 2083.49 4389.26 2080.37 4392.02C2077.25 4394.78 2073.65 4397.18 2069.57 4399.22C2065.61 4401.26 2061.83 4402.7 2058.23 4403.54C2054.27 4404.38 2050.07 4404.74 2045.63 4404.62C2041.31 4404.62 2036.93 4404.08 2032.49 4403C2028.17 4402.04 2023.91 4400.6 2019.71 4398.68C2015.63 4396.64 2011.85 4394.18 2008.37 4391.3C2004.17 4387.82 2000.87 4383.68 1998.47 4378.88C1996.19 4373.96 1994.51 4368.74 1993.43 4363.22C1992.35 4357.7 1991.75 4352.18 1991.63 4346.66C1991.63 4341.02 1991.81 4335.74 1992.17 4330.82C1992.53 4326.38 1993.43 4321.76 1994.87 4316.96C1996.31 4312.16 1998.29 4307.48 2000.81 4302.92C2003.45 4298.24 2006.57 4293.92 2010.17 4289.96C2013.89 4286 2018.21 4282.64 2023.13 4279.88C2026.85 4277.72 2030.99 4276.28 2035.55 4275.56C2040.23 4274.72 2044.91 4274.54 2049.59 4275.02C2054.39 4275.38 2058.89 4276.4 2063.09 4278.08C2067.41 4279.64 2071.07 4281.8 2074.07 4284.56C2075.99 4286.24 2077.97 4288.58 2080.01 4291.58C2082.17 4294.58 2083.73 4297.64 2084.69 4300.76C2085.65 4303.88 2085.65 4306.82 2084.69 4309.58C2083.85 4312.22 2081.45 4314.02 2077.49 4314.98C2075.81 4315.46 2074.31 4315.58 2072.99 4315.34C2071.67 4314.98 2070.47 4314.44 2069.39 4313.72C2068.31 4312.88 2067.29 4311.92 2066.33 4310.84C2065.37 4309.76 2064.47 4308.68 2063.63 4307.6C2060.75 4304.12 2057.39 4301.78 2053.55 4300.58C2049.71 4299.26 2045.87 4298.96 2042.03 4299.68C2038.31 4300.28 2034.77 4301.84 2031.41 4304.36C2028.17 4306.76 2025.65 4309.88 2023.85 4313.72C2021.93 4317.8 2020.37 4322.3 2019.17 4327.22C2018.09 4332.02 2017.49 4336.94 2017.37 4341.98C2017.25 4346.9 2017.67 4351.7 2018.63 4356.38C2019.71 4361.06 2021.51 4365.2 2024.03 4368.8C2025.95 4371.68 2028.29 4374.02 2031.05 4375.82C2033.93 4377.62 2036.99 4378.88 2040.23 4379.6C2043.47 4380.32 2046.71 4380.44 2049.95 4379.96C2053.31 4379.48 2056.55 4378.4 2059.67 4376.72C2060.63 4376.24 2061.65 4375.58 2062.73 4374.74C2063.93 4373.78 2065.13 4372.82 2066.33 4371.86C2067.53 4370.9 2068.73 4370 2069.93 4369.16C2071.25 4368.32 2072.63 4367.72 2074.07 4367.36C2076.23 4366.64 2078.57 4366.7 2081.09 4367.54C2083.73 4368.38 2085.71 4370.12 2087.03 4372.76ZM2129.13 4279.88C2137.17 4276.88 2144.43 4275.56 2150.91 4275.92C2157.51 4276.28 2163.39 4277.96 2168.55 4280.96C2173.71 4283.84 2178.09 4287.74 2181.69 4292.66C2185.41 4297.58 2188.41 4303.1 2190.69 4309.22C2192.49 4313.78 2193.87 4318.58 2194.83 4323.62C2195.79 4328.66 2196.33 4333.7 2196.45 4338.74C2196.69 4343.66 2196.51 4348.52 2195.91 4353.32C2195.43 4358.12 2194.59 4362.56 2193.39 4366.64C2192.67 4369.4 2191.83 4371.92 2190.87 4374.2C2189.91 4376.48 2188.77 4378.76 2187.45 4381.04C2184.45 4386.2 2180.55 4390.4 2175.75 4393.64C2171.07 4396.88 2165.91 4399.16 2160.27 4400.48C2156.43 4401.44 2152.47 4401.92 2148.39 4401.92C2144.31 4401.8 2140.29 4401.26 2136.33 4400.3C2132.37 4399.22 2128.53 4397.72 2124.81 4395.8C2121.21 4393.76 2117.91 4391.24 2114.91 4388.24C2111.19 4384.64 2108.13 4380.5 2105.73 4375.82C2103.33 4371.02 2101.47 4366.04 2100.15 4360.88C2098.83 4355.6 2097.99 4350.32 2097.63 4345.04C2097.27 4339.76 2097.27 4334.72 2097.63 4329.92C2097.99 4325.48 2098.83 4320.74 2100.15 4315.7C2101.59 4310.66 2103.63 4305.8 2106.27 4301.12C2108.91 4296.44 2112.09 4292.24 2115.81 4288.52C2119.65 4284.68 2124.09 4281.8 2129.13 4279.88ZM2171.25 4356.92C2172.69 4351.28 2173.29 4344.92 2173.05 4337.84C2172.81 4330.76 2171.67 4324.1 2169.63 4317.86C2168.31 4314.02 2166.63 4310.66 2164.59 4307.78C2162.67 4304.78 2160.33 4302.5 2157.57 4300.94C2154.93 4299.38 2151.81 4298.6 2148.21 4298.6C2144.61 4298.6 2140.59 4299.68 2136.15 4301.84C2133.51 4303.16 2131.23 4304.96 2129.31 4307.24C2127.51 4309.52 2126.01 4312.1 2124.81 4314.98C2123.73 4317.86 2122.83 4320.86 2122.11 4323.98C2121.51 4327.1 2121.15 4330.1 2121.03 4332.98C2120.79 4336.1 2120.73 4339.4 2120.85 4342.88C2120.97 4346.24 2121.33 4349.66 2121.93 4353.14C2122.65 4356.5 2123.61 4359.74 2124.81 4362.86C2126.01 4365.86 2127.63 4368.56 2129.67 4370.96C2132.79 4374.56 2136.39 4377.08 2140.47 4378.52C2144.67 4379.84 2148.81 4380.02 2152.89 4379.06C2159.49 4377.62 2164.53 4373.24 2168.01 4365.92C2169.45 4363.28 2170.53 4360.28 2171.25 4356.92ZM2309.09 4389.32C2308.97 4391.36 2308.67 4393.52 2308.19 4395.8C2307.83 4398.08 2306.69 4399.94 2304.77 4401.38C2303.33 4402.58 2301.71 4403.3 2299.91 4403.54C2298.11 4403.78 2296.31 4403.66 2294.51 4403.18C2292.83 4402.82 2291.21 4402.22 2289.65 4401.38C2288.09 4400.42 2286.83 4399.28 2285.87 4397.96C2281.79 4392.92 2278.01 4387.76 2274.53 4382.48C2271.17 4377.08 2267.75 4371.68 2264.27 4366.28L2249.15 4343.42C2247.11 4340.18 2244.95 4336.58 2242.67 4332.62C2240.39 4328.54 2238.05 4324.76 2235.65 4321.28L2235.11 4390.04V4391.66C2235.11 4393.58 2234.75 4395.5 2234.03 4397.42C2233.43 4399.22 2232.35 4400.78 2230.79 4402.1C2229.59 4403.06 2228.03 4403.72 2226.11 4404.08C2223.11 4404.68 2220.59 4404.5 2218.55 4403.54C2216.63 4402.58 2215.07 4401.26 2213.87 4399.58C2212.79 4397.9 2212.01 4395.98 2211.53 4393.82C2211.17 4391.54 2211.11 4389.32 2211.35 4387.16V4384.1L2211.71 4370.06L2211.89 4343.96C2212.01 4340.12 2212.07 4336.22 2212.07 4332.26C2212.07 4328.18 2212.07 4324.04 2212.07 4319.84C2211.95 4314.68 2211.95 4309.22 2212.07 4303.46C2212.31 4297.7 2212.55 4292.3 2212.79 4287.26C2213.03 4284.5 2213.69 4282.16 2214.77 4280.24C2215.25 4278.56 2216.51 4277.12 2218.55 4275.92C2219.87 4275.08 2221.55 4274.54 2223.59 4274.3C2225.75 4274.06 2227.61 4274.12 2229.17 4274.48C2229.77 4274.72 2230.37 4275.02 2230.97 4275.38C2231.57 4275.62 2232.17 4275.92 2232.77 4276.28C2233.37 4276.76 2233.91 4277.24 2234.39 4277.72C2234.99 4278.2 2235.53 4278.74 2236.01 4279.34C2236.61 4279.94 2237.15 4280.6 2237.63 4281.32C2238.11 4281.92 2238.59 4282.52 2239.07 4283.12C2239.43 4283.84 2239.79 4284.5 2240.15 4285.1C2240.51 4285.7 2240.93 4286.3 2241.41 4286.9L2243.39 4289.78L2284.97 4355.3V4343.42C2284.97 4339.58 2284.91 4335.68 2284.79 4331.72C2284.79 4327.64 2284.73 4323.44 2284.61 4319.12C2284.61 4314.08 2284.61 4308.68 2284.61 4302.92C2284.73 4297.16 2284.91 4291.76 2285.15 4286.72C2285.15 4284.68 2285.75 4282.34 2286.95 4279.7C2287.55 4278.14 2288.57 4276.88 2290.01 4275.92C2291.45 4274.96 2293.07 4274.3 2294.87 4273.94C2296.67 4273.58 2298.47 4273.58 2300.27 4273.94C2302.07 4274.3 2303.63 4275.02 2304.95 4276.1C2305.31 4276.46 2305.67 4276.88 2306.03 4277.36C2306.39 4277.84 2306.69 4278.38 2306.93 4278.98C2307.53 4280.54 2307.89 4281.92 2308.01 4283.12C2308.37 4284.8 2308.55 4286.3 2308.55 4287.62C2308.55 4302.62 2308.55 4317.92 2308.55 4333.52C2308.67 4349.12 2308.79 4364.42 2308.91 4379.42C2308.91 4381.1 2308.97 4382.78 2309.09 4384.46C2309.21 4386.02 2309.21 4387.64 2309.09 4389.32ZM2423.03 4281.14C2424.35 4282.7 2425.01 4284.32 2425.01 4286C2425.01 4286.72 2424.95 4287.5 2424.83 4288.34C2424.83 4289.06 2424.77 4289.72 2424.65 4290.32C2424.29 4291.64 2423.51 4292.9 2422.31 4294.1C2421.35 4294.82 2420.03 4295.36 2418.35 4295.72C2417.51 4295.96 2416.67 4296.14 2415.83 4296.26C2414.99 4296.38 2414.09 4296.56 2413.13 4296.8C2412.29 4296.92 2411.45 4296.98 2410.61 4296.98C2409.77 4296.98 2408.87 4296.98 2407.91 4296.98H2398.73C2396.57 4297.1 2394.41 4297.16 2392.25 4297.16C2390.21 4297.16 2388.17 4297.16 2386.13 4297.16C2386.25 4300.88 2386.31 4304.9 2386.31 4309.22C2386.31 4313.42 2386.25 4318.34 2386.13 4323.98C2386.13 4329.62 2386.07 4336.16 2385.95 4343.6C2385.95 4351.04 2385.95 4359.68 2385.95 4369.52V4383.2C2385.95 4384.4 2386.01 4385.3 2386.13 4385.9C2386.13 4386.38 2386.13 4386.86 2386.13 4387.34C2386.13 4387.7 2386.07 4388.18 2385.95 4388.78C2385.71 4389.86 2385.53 4391.12 2385.41 4392.56C2385.41 4393.16 2385.35 4393.76 2385.23 4394.36C2385.11 4394.84 2384.93 4395.38 2384.69 4395.98C2384.21 4396.46 2383.97 4396.82 2383.97 4397.06L2383.43 4398.14C2382.83 4399.34 2381.69 4400.48 2380.01 4401.56C2377.37 4402.88 2374.43 4403.18 2371.19 4402.46C2369.15 4402.22 2367.59 4401.68 2366.51 4400.84C2365.43 4399.76 2364.65 4398.68 2364.17 4397.6C2363.45 4396.28 2363.03 4395.02 2362.91 4393.82C2362.55 4392.74 2362.37 4391.6 2362.37 4390.4V4297.88C2361.65 4297.88 2360.15 4297.88 2357.87 4297.88C2355.59 4297.88 2353.13 4297.88 2350.49 4297.88C2347.97 4297.76 2345.57 4297.64 2343.29 4297.52C2341.01 4297.4 2339.45 4297.28 2338.61 4297.16C2337.89 4297.04 2336.75 4296.86 2335.19 4296.62C2333.75 4296.38 2332.55 4296.14 2331.59 4295.9C2329.07 4295.18 2327.09 4294.04 2325.65 4292.48C2324.33 4290.92 2323.67 4289.18 2323.67 4287.26C2323.67 4286.54 2323.67 4285.82 2323.67 4285.1C2323.67 4284.38 2323.79 4283.72 2324.03 4283.12C2324.39 4281.68 2325.35 4280.48 2326.91 4279.52C2327.39 4279.16 2328.11 4278.74 2329.07 4278.26C2330.15 4277.66 2331.17 4277.24 2332.13 4277C2333.57 4276.52 2335.37 4276.16 2337.53 4275.92C2338.49 4275.8 2339.45 4275.74 2340.41 4275.74C2341.37 4275.74 2342.39 4275.74 2343.47 4275.74C2347.67 4275.74 2351.63 4275.74 2355.35 4275.74C2359.19 4275.74 2363.21 4275.68 2367.41 4275.56C2374.37 4275.44 2381.27 4275.44 2388.11 4275.56C2395.07 4275.56 2401.97 4275.68 2408.81 4275.92C2410.37 4276.04 2411.87 4276.22 2413.31 4276.46C2414.75 4276.7 2416.19 4277.12 2417.63 4277.72C2418.71 4278.08 2419.73 4278.56 2420.69 4279.16C2421.65 4279.64 2422.43 4280.3 2423.03 4281.14ZM2527.02 4390.76C2527.14 4391.48 2527.2 4392.2 2527.2 4392.92C2527.32 4393.52 2527.38 4394.24 2527.38 4395.08C2527.38 4396.52 2526.96 4397.84 2526.12 4399.04C2525.76 4399.64 2525.28 4400.24 2524.68 4400.84C2524.08 4401.32 2523.36 4401.74 2522.52 4402.1C2519.52 4403.78 2516.34 4404.38 2512.98 4403.9C2511.3 4403.42 2509.8 4402.64 2508.48 4401.56C2508.24 4401.32 2508.06 4401.2 2507.94 4401.2C2507.82 4401.08 2507.7 4400.9 2507.58 4400.66C2507.46 4400.54 2507.34 4400.42 2507.22 4400.3C2507.1 4400.06 2506.92 4399.88 2506.68 4399.76C2506.08 4399.16 2505.6 4398.62 2505.24 4398.14C2504.88 4397.54 2504.52 4396.94 2504.16 4396.34C2503.92 4395.74 2503.62 4395.2 2503.26 4394.72C2503.02 4394.12 2502.72 4393.52 2502.36 4392.92C2502.12 4392.44 2501.88 4392.02 2501.64 4391.66C2501.4 4391.18 2501.22 4390.7 2501.1 4390.22C2500.62 4389.14 2500.32 4388.18 2500.2 4387.34L2496.42 4378.52C2488.14 4378.52 2479.86 4378.58 2471.58 4378.7C2463.42 4378.7 2455.2 4378.64 2446.92 4378.52L2443.14 4387.34C2442.9 4387.82 2442.72 4388.3 2442.6 4388.78C2442.6 4389.26 2442.48 4389.74 2442.24 4390.22C2442 4390.7 2441.76 4391.18 2441.52 4391.66C2441.4 4392.02 2441.22 4392.44 2440.98 4392.92C2440.62 4393.52 2440.26 4394.12 2439.9 4394.72C2439.66 4395.2 2439.36 4395.74 2439 4396.34C2438.76 4396.94 2438.46 4397.54 2438.1 4398.14C2437.74 4398.62 2437.26 4399.16 2436.66 4399.76C2436.42 4399.88 2436.24 4400.06 2436.12 4400.3C2436 4400.42 2435.88 4400.54 2435.76 4400.66C2435.64 4400.9 2435.52 4401.08 2435.4 4401.2C2435.28 4401.2 2435.1 4401.32 2434.86 4401.56C2433.54 4402.64 2432.04 4403.42 2430.36 4403.9C2427 4404.38 2423.82 4403.78 2420.82 4402.1C2419.98 4401.74 2419.26 4401.32 2418.66 4400.84C2418.06 4400.24 2417.58 4399.64 2417.22 4399.04C2416.38 4397.84 2415.96 4396.52 2415.96 4395.08C2415.96 4394.24 2415.96 4393.52 2415.96 4392.92C2416.08 4392.2 2416.2 4391.48 2416.32 4390.76C2416.56 4389.68 2416.86 4388.6 2417.22 4387.52C2417.58 4386.44 2417.76 4385.9 2417.76 4385.9L2455.2 4293.74L2456.28 4290.86C2456.52 4290.14 2456.82 4289.48 2457.18 4288.88C2457.54 4288.28 2457.84 4287.56 2458.08 4286.72C2458.68 4285.16 2459.34 4283.78 2460.06 4282.58C2460.42 4281.86 2460.84 4281.2 2461.32 4280.6C2461.8 4280 2462.28 4279.4 2462.76 4278.8C2463.48 4277.84 2464.5 4277.06 2465.82 4276.46C2467.5 4275.86 2469.42 4275.56 2471.58 4275.56C2473.86 4275.56 2475.84 4275.86 2477.52 4276.46C2478.84 4277.06 2479.86 4277.84 2480.58 4278.8C2481.42 4279.88 2482.32 4281.14 2483.28 4282.58C2484 4283.78 2484.66 4285.16 2485.26 4286.72C2485.5 4287.56 2485.8 4288.28 2486.16 4288.88C2486.52 4289.48 2486.82 4290.14 2487.06 4290.86L2488.14 4293.74L2525.58 4385.9C2525.58 4385.9 2525.76 4386.44 2526.12 4387.52C2526.48 4388.6 2526.78 4389.68 2527.02 4390.76ZM2484.36 4346.66C2482.8 4343.18 2481.18 4339.58 2479.5 4335.86C2477.94 4332.14 2476.26 4328.36 2474.46 4324.52C2473.98 4323.44 2473.5 4322.36 2473.02 4321.28C2472.54 4320.08 2472.06 4318.94 2471.58 4317.86C2471.22 4318.94 2470.8 4320.08 2470.32 4321.28C2469.84 4322.36 2469.36 4323.44 2468.88 4324.52C2467.08 4328.36 2465.34 4332.14 2463.66 4335.86C2462.1 4339.58 2460.54 4343.18 2458.98 4346.66L2455.74 4354.58H2487.6L2484.36 4346.66ZM2637.4 4372.76C2638.96 4376.24 2639.02 4379.66 2637.58 4383.02C2636.14 4386.26 2633.86 4389.26 2630.74 4392.02C2627.62 4394.78 2624.02 4397.18 2619.94 4399.22C2615.98 4401.26 2612.2 4402.7 2608.6 4403.54C2604.64 4404.38 2600.44 4404.74 2596 4404.62C2591.68 4404.62 2587.3 4404.08 2582.86 4403C2578.54 4402.04 2574.28 4400.6 2570.08 4398.68C2566 4396.64 2562.22 4394.18 2558.74 4391.3C2554.54 4387.82 2551.24 4383.68 2548.84 4378.88C2546.56 4373.96 2544.88 4368.74 2543.8 4363.22C2542.72 4357.7 2542.12 4352.18 2542 4346.66C2542 4341.02 2542.18 4335.74 2542.54 4330.82C2542.9 4326.38 2543.8 4321.76 2545.24 4316.96C2546.68 4312.16 2548.66 4307.48 2551.18 4302.92C2553.82 4298.24 2556.94 4293.92 2560.54 4289.96C2564.26 4286 2568.58 4282.64 2573.5 4279.88C2577.22 4277.72 2581.36 4276.28 2585.92 4275.56C2590.6 4274.72 2595.28 4274.54 2599.96 4275.02C2604.76 4275.38 2609.26 4276.4 2613.46 4278.08C2617.78 4279.64 2621.44 4281.8 2624.44 4284.56C2626.36 4286.24 2628.34 4288.58 2630.38 4291.58C2632.54 4294.58 2634.1 4297.64 2635.06 4300.76C2636.02 4303.88 2636.02 4306.82 2635.06 4309.58C2634.22 4312.22 2631.82 4314.02 2627.86 4314.98C2626.18 4315.46 2624.68 4315.58 2623.36 4315.34C2622.04 4314.98 2620.84 4314.44 2619.76 4313.72C2618.68 4312.88 2617.66 4311.92 2616.7 4310.84C2615.74 4309.76 2614.84 4308.68 2614 4307.6C2611.12 4304.12 2607.76 4301.78 2603.92 4300.58C2600.08 4299.26 2596.24 4298.96 2592.4 4299.68C2588.68 4300.28 2585.14 4301.84 2581.78 4304.36C2578.54 4306.76 2576.02 4309.88 2574.22 4313.72C2572.3 4317.8 2570.74 4322.3 2569.54 4327.22C2568.46 4332.02 2567.86 4336.94 2567.74 4341.98C2567.62 4346.9 2568.04 4351.7 2569 4356.38C2570.08 4361.06 2571.88 4365.2 2574.4 4368.8C2576.32 4371.68 2578.66 4374.02 2581.42 4375.82C2584.3 4377.62 2587.36 4378.88 2590.6 4379.6C2593.84 4380.32 2597.08 4380.44 2600.32 4379.96C2603.68 4379.48 2606.92 4378.4 2610.04 4376.72C2611 4376.24 2612.02 4375.58 2613.1 4374.74C2614.3 4373.78 2615.5 4372.82 2616.7 4371.86C2617.9 4370.9 2619.1 4370 2620.3 4369.16C2621.62 4368.32 2623 4367.72 2624.44 4367.36C2626.6 4366.64 2628.94 4366.7 2631.46 4367.54C2634.1 4368.38 2636.08 4370.12 2637.4 4372.76ZM2743.48 4281.14C2744.8 4282.7 2745.46 4284.32 2745.46 4286C2745.46 4286.72 2745.4 4287.5 2745.28 4288.34C2745.28 4289.06 2745.22 4289.72 2745.1 4290.32C2744.74 4291.64 2743.96 4292.9 2742.76 4294.1C2741.8 4294.82 2740.48 4295.36 2738.8 4295.72C2737.96 4295.96 2737.12 4296.14 2736.28 4296.26C2735.44 4296.38 2734.54 4296.56 2733.58 4296.8C2732.74 4296.92 2731.9 4296.98 2731.06 4296.98C2730.22 4296.98 2729.32 4296.98 2728.36 4296.98H2719.18C2717.02 4297.1 2714.86 4297.16 2712.7 4297.16C2710.66 4297.16 2708.62 4297.16 2706.58 4297.16C2706.7 4300.88 2706.76 4304.9 2706.76 4309.22C2706.76 4313.42 2706.7 4318.34 2706.58 4323.98C2706.58 4329.62 2706.52 4336.16 2706.4 4343.6C2706.4 4351.04 2706.4 4359.68 2706.4 4369.52V4383.2C2706.4 4384.4 2706.46 4385.3 2706.58 4385.9C2706.58 4386.38 2706.58 4386.86 2706.58 4387.34C2706.58 4387.7 2706.52 4388.18 2706.4 4388.78C2706.16 4389.86 2705.98 4391.12 2705.86 4392.56C2705.86 4393.16 2705.8 4393.76 2705.68 4394.36C2705.56 4394.84 2705.38 4395.38 2705.14 4395.98C2704.66 4396.46 2704.42 4396.82 2704.42 4397.06L2703.88 4398.14C2703.28 4399.34 2702.14 4400.48 2700.46 4401.56C2697.82 4402.88 2694.88 4403.18 2691.64 4402.46C2689.6 4402.22 2688.04 4401.68 2686.96 4400.84C2685.88 4399.76 2685.1 4398.68 2684.62 4397.6C2683.9 4396.28 2683.48 4395.02 2683.36 4393.82C2683 4392.74 2682.82 4391.6 2682.82 4390.4V4297.88C2682.1 4297.88 2680.6 4297.88 2678.32 4297.88C2676.04 4297.88 2673.58 4297.88 2670.94 4297.88C2668.42 4297.76 2666.02 4297.64 2663.74 4297.52C2661.46 4297.4 2659.9 4297.28 2659.06 4297.16C2658.34 4297.04 2657.2 4296.86 2655.64 4296.62C2654.2 4296.38 2653 4296.14 2652.04 4295.9C2649.52 4295.18 2647.54 4294.04 2646.1 4292.48C2644.78 4290.92 2644.12 4289.18 2644.12 4287.26C2644.12 4286.54 2644.12 4285.82 2644.12 4285.1C2644.12 4284.38 2644.24 4283.72 2644.48 4283.12C2644.84 4281.68 2645.8 4280.48 2647.36 4279.52C2647.84 4279.16 2648.56 4278.74 2649.52 4278.26C2650.6 4277.66 2651.62 4277.24 2652.58 4277C2654.02 4276.52 2655.82 4276.16 2657.98 4275.92C2658.94 4275.8 2659.9 4275.74 2660.86 4275.74C2661.82 4275.74 2662.84 4275.74 2663.92 4275.74C2668.12 4275.74 2672.08 4275.74 2675.8 4275.74C2679.64 4275.74 2683.66 4275.68 2687.86 4275.56C2694.82 4275.44 2701.72 4275.44 2708.56 4275.56C2715.52 4275.56 2722.42 4275.68 2729.26 4275.92C2730.82 4276.04 2732.32 4276.22 2733.76 4276.46C2735.2 4276.7 2736.64 4277.12 2738.08 4277.72C2739.16 4278.08 2740.18 4278.56 2741.14 4279.16C2742.1 4279.64 2742.88 4280.3 2743.48 4281.14ZM2847.58 4350.62C2848.18 4352.3 2848.6 4354.22 2848.84 4356.38C2849.2 4358.42 2849.38 4360.52 2849.38 4362.68C2849.38 4364.84 2849.2 4367 2848.84 4369.16C2848.6 4371.2 2848.24 4373 2847.76 4374.56C2845.84 4381.28 2842 4386.92 2836.24 4391.48C2830.48 4395.92 2823.88 4399.16 2816.44 4401.2C2809.12 4403.24 2801.5 4403.96 2793.58 4403.36C2785.78 4402.76 2778.82 4400.78 2772.7 4397.42C2768.86 4395.26 2765.56 4392.62 2762.8 4389.5C2760.04 4386.38 2757.7 4382.9 2755.78 4379.06C2755.06 4377.74 2754.58 4376.24 2754.34 4374.56C2754.22 4372.76 2754.4 4371.08 2754.88 4369.52C2755.36 4367.84 2756.14 4366.4 2757.22 4365.2C2758.3 4363.88 2759.8 4362.98 2761.72 4362.5C2762.92 4362.26 2764.24 4362.14 2765.68 4362.14C2767.24 4362.14 2768.74 4362.38 2770.18 4362.86C2771.62 4363.22 2772.94 4363.88 2774.14 4364.84C2775.34 4365.68 2776.3 4366.88 2777.02 4368.44C2778.34 4370.96 2780.2 4373.3 2782.6 4375.46C2785.12 4377.5 2787.76 4379.18 2790.52 4380.5C2794.48 4381.82 2798.44 4382.36 2802.4 4382.12C2806.48 4381.88 2810.14 4380.98 2813.38 4379.42C2816.74 4377.86 2819.44 4375.76 2821.48 4373.12C2823.52 4370.36 2824.54 4367.24 2824.54 4363.76C2824.54 4360.88 2824.12 4358.54 2823.28 4356.74C2822.44 4354.82 2821.24 4353.26 2819.68 4352.06C2818.24 4350.74 2816.44 4349.66 2814.28 4348.82C2812.24 4347.98 2809.96 4347.26 2807.44 4346.66C2804.56 4346.06 2801.62 4345.64 2798.62 4345.4C2795.74 4345.16 2792.8 4344.86 2789.8 4344.5C2786.8 4344.14 2783.86 4343.66 2780.98 4343.06C2778.1 4342.46 2775.28 4341.56 2772.52 4340.36C2767 4338.08 2762.8 4334.6 2759.92 4329.92C2757.04 4325.24 2755.3 4320.2 2754.7 4314.8C2754.22 4309.4 2754.88 4304.06 2756.68 4298.78C2758.48 4293.38 2761.36 4288.76 2765.32 4284.92C2769.16 4281.44 2773.72 4278.98 2779 4277.54C2784.4 4275.98 2790.34 4275.08 2796.82 4274.84C2800.42 4274.72 2804.02 4274.84 2807.62 4275.2C2811.34 4275.56 2814.88 4276.16 2818.24 4277C2821.72 4277.84 2824.9 4278.92 2827.78 4280.24C2830.78 4281.56 2833.36 4283.12 2835.52 4284.92C2837.08 4286.12 2838.64 4287.74 2840.2 4289.78C2841.76 4291.7 2842.96 4293.8 2843.8 4296.08C2844.64 4298.24 2844.88 4300.34 2844.52 4302.38C2844.28 4304.42 2843.02 4306.16 2840.74 4307.6C2838.82 4308.8 2836.96 4309.34 2835.16 4309.22C2833.48 4308.98 2831.86 4308.44 2830.3 4307.6C2828.74 4306.64 2827.24 4305.56 2825.8 4304.36C2824.36 4303.16 2823.04 4302.08 2821.84 4301.12C2818.6 4298.72 2814.58 4297.1 2809.78 4296.26C2804.98 4295.42 2800.48 4295.24 2796.28 4295.72C2793.64 4296.08 2791.18 4296.68 2788.9 4297.52C2786.62 4298.36 2784.64 4299.5 2782.96 4300.94C2781.4 4302.38 2780.14 4304.18 2779.18 4306.34C2778.34 4308.38 2778.04 4310.72 2778.28 4313.36C2778.4 4315.28 2778.94 4316.9 2779.9 4318.22C2780.98 4319.54 2782.24 4320.62 2783.68 4321.46C2785.24 4322.3 2786.92 4322.96 2788.72 4323.44C2790.52 4323.92 2792.32 4324.28 2794.12 4324.52C2799.52 4325.24 2804.92 4325.78 2810.32 4326.14C2815.72 4326.5 2821 4327.7 2826.16 4329.74C2831.44 4331.78 2835.94 4334.54 2839.66 4338.02C2843.38 4341.5 2846.02 4345.7 2847.58 4350.62Z" fill="black"/>
<rect x="1268" y="4801" width="384" height="383.99" rx="45" fill="#AD8E50"/>
<path d="M1460 4867.99C1435.88 4868.02 1412.75 4877.63 1395.69 4894.71C1378.63 4911.79 1369.03 4934.94 1369 4959.09C1369 5007.56 1451.53 5111.2 1455.05 5115.61C1455.64 5116.35 1456.4 5116.95 1457.25 5117.36C1458.11 5117.77 1459.05 5117.99 1460 5117.99C1460.95 5117.99 1461.89 5117.77 1462.75 5117.36C1463.6 5116.95 1464.36 5116.35 1464.95 5115.61C1468.47 5111.2 1551 5007.56 1551 4959.09C1550.97 4934.94 1541.37 4911.79 1524.31 4894.71C1507.25 4877.63 1484.12 4868.02 1460 4867.99ZM1460 5013.28C1449.29 5013.28 1438.83 5010.1 1429.92 5004.15C1421.02 4998.19 1414.08 4989.73 1409.99 4979.83C1405.89 4969.93 1404.82 4959.03 1406.91 4948.52C1408.99 4938 1414.15 4928.35 1421.72 4920.77C1429.29 4913.19 1438.94 4908.03 1449.44 4905.94C1459.94 4903.85 1470.82 4904.92 1480.72 4909.02C1490.61 4913.12 1499.06 4920.07 1505.01 4928.98C1510.96 4937.89 1514.13 4948.37 1514.13 4959.09C1514.11 4973.46 1508.4 4987.23 1498.25 4997.39C1488.11 5007.54 1474.35 5013.26 1460 5013.28Z" fill="white"/>
<rect x="2668" y="4801" width="384" height="383.99" rx="45" fill="#AD8E50"/>
<path d="M2954.25 4907.99H2765.44C2760.02 4907.99 2754.82 4910.14 2750.99 4913.96C2747.15 4917.79 2745 4922.97 2745 4928.38V5057.6C2745 5063.01 2747.15 5068.19 2750.99 5072.02C2754.82 5075.84 2760.02 5077.99 2765.44 5077.99H2954.56C2959.98 5077.99 2965.18 5075.84 2969.01 5072.02C2972.85 5068.19 2975 5063.01 2975 5057.6V4928.43C2975.01 4925.72 2974.47 4923.04 2973.43 4920.54C2972.39 4918.04 2970.85 4915.78 2968.92 4913.87C2966.99 4911.97 2964.7 4910.47 2962.18 4909.46C2959.66 4908.45 2956.96 4907.95 2954.25 4907.99ZM2831.58 5001.78L2771.22 5066.93C2770.79 5067.38 2770.28 5067.75 2769.71 5068C2769.14 5068.26 2768.52 5068.39 2767.9 5068.4C2766.77 5068.4 2765.69 5067.96 2764.88 5067.18C2764.44 5066.79 2764.08 5066.32 2763.82 5065.79C2763.56 5065.26 2763.41 5064.68 2763.37 5064.1C2763.34 5063.51 2763.42 5062.92 2763.62 5062.36C2763.82 5061.81 2764.13 5061.3 2764.52 5060.86L2824.99 4995.67C2825.83 4994.83 2826.97 4994.36 2828.16 4994.36C2829.35 4994.36 2830.48 4994.83 2831.33 4995.67C2832.16 4996.45 2832.65 4997.53 2832.7 4998.67C2832.75 4999.82 2832.35 5000.93 2831.58 5001.78ZM2770.76 4928.18C2770.31 4927.79 2769.95 4927.32 2769.69 4926.78C2769.43 4926.25 2769.28 4925.67 2769.25 4925.08C2769.23 4924.49 2769.32 4923.9 2769.52 4923.35C2769.73 4922.79 2770.05 4922.29 2770.45 4921.86C2770.85 4921.42 2771.33 4921.07 2771.86 4920.82C2772.4 4920.57 2772.98 4920.43 2773.57 4920.4C2774.16 4920.38 2774.75 4920.47 2775.3 4920.68C2775.85 4920.89 2776.36 4921.2 2776.79 4921.6L2859.44 4995L2942.8 4920.43C2943.69 4919.62 2944.88 4919.2 2946.08 4919.25C2947.29 4919.31 2948.43 4919.84 2949.24 4920.74C2950.05 4921.63 2950.48 4922.81 2950.42 4924.01C2950.36 4925.21 2949.83 4926.35 2948.93 4927.16L2859.44 5006.88L2770.76 4928.18ZM2951.49 5067.18C2950.68 5067.96 2949.6 5068.4 2948.47 5068.4C2947.85 5068.39 2947.23 5068.26 2946.66 5068C2946.09 5067.75 2945.58 5067.38 2945.15 5066.93L2884.79 5001.78C2884.36 5001.37 2884.02 5000.88 2883.79 5000.34C2883.56 4999.8 2883.44 4999.21 2883.44 4998.62C2883.44 4998.03 2883.56 4997.45 2883.79 4996.91C2884.02 4996.36 2884.36 4995.87 2884.79 4995.46C2885.63 4994.63 2886.77 4994.16 2887.96 4994.16C2889.14 4994.16 2890.28 4994.63 2891.13 4995.46L2951.85 5060.86C2952.25 5061.29 2952.56 5061.8 2952.77 5062.36C2952.97 5062.92 2953.05 5063.51 2953.02 5064.1C2952.99 5064.69 2952.83 5065.27 2952.57 5065.8C2952.31 5066.33 2951.94 5066.8 2951.49 5067.18Z" fill="white"/>
<rect x="1968" y="4801" width="384" height="383.99" rx="45" fill="#AD8E50"/>
<path d="M2254.69 5053.28C2277.81 5019.18 2277.73 4967.46 2254.69 4933.36C2211.57 4864.85 2108.83 4864.89 2065.71 4933.36C2042.13 4967.57 2042.13 5019.41 2065.52 5053.62C2108.64 5122.13 2211.38 5122.09 2254.5 5053.62C2254.58 5053.52 2254.64 5053.4 2254.69 5053.28ZM2059.43 4999.17H2092.97C2093.32 5014.58 2095.71 5029.86 2100.08 5044.64H2073.46C2065.17 5030.84 2060.35 5015.24 2059.43 4999.17ZM2073.35 4942.34H2099.97C2095.6 4957.11 2093.2 4972.4 2092.86 4987.81H2059.43C2060.32 4971.75 2065.09 4956.15 2073.35 4942.34ZM2260.58 4987.81H2227.05C2226.7 4972.4 2224.31 4957.11 2219.93 4942.34H2246.55C2254.85 4956.14 2259.66 4971.74 2260.58 4987.81ZM2215.64 4987.81H2182.14C2182.14 4976.44 2181.64 4959.5 2180.24 4942.34H2207.69C2212.53 4957.03 2215.21 4972.35 2215.64 4987.81ZM2151.34 5044.64C2150.2 5031.61 2149.44 5016.3 2149.32 4999.17H2170.69C2170.69 5016.3 2169.82 5031.61 2168.68 5044.64H2151.34ZM2167.5 5056.01C2165.37 5074.35 2162.55 5086.93 2159.89 5092.12C2157.35 5086.93 2154.53 5074.35 2152.29 5056.01H2167.5ZM2149.32 4987.81C2149.32 4970.68 2150.2 4955.37 2151.34 4942.34H2168.68C2169.82 4955.37 2170.58 4970.68 2170.69 4987.81H2149.32ZM2152.52 4930.97C2154.65 4912.63 2157.46 4900.05 2160.12 4894.86C2162.67 4900.05 2165.48 4912.63 2167.73 4930.97H2152.52ZM2179.13 4930.97C2178.1 4918.97 2175.76 4907.12 2172.18 4895.62C2184.5 4900.81 2195.41 4913.58 2203.24 4930.97H2179.13ZM2147.84 4895.62C2144.29 4907.12 2142 4918.98 2140.99 4930.97H2116.77C2124.61 4913.58 2135.52 4900.81 2147.84 4895.62ZM2139.78 4942.34C2138.37 4959.5 2137.99 4976.44 2137.88 4987.81H2104.38C2104.81 4972.35 2107.49 4957.03 2112.32 4942.34H2139.78ZM2104.38 4999.17H2137.88C2137.88 5010.54 2138.37 5027.48 2139.78 5044.64H2112.32C2107.49 5029.95 2104.81 5014.63 2104.38 4999.17ZM2140.88 5056.01C2141.92 5068.01 2144.25 5079.86 2147.84 5091.36C2135.52 5086.17 2124.61 5073.4 2116.77 5056.01H2140.88ZM2172.18 5091.36C2175.72 5079.86 2178.02 5068 2179.02 5056.01H2203.13C2195.41 5073.4 2184.5 5086.17 2172.18 5091.36ZM2180.24 5044.64C2181.64 5027.48 2182.02 5010.54 2182.14 4999.17H2215.64C2215.21 5014.63 2212.53 5029.95 2207.69 5044.64H2180.24ZM2227.05 4999.17H2260.58C2259.7 5015.23 2254.92 5030.83 2246.67 5044.64H2220.05C2224.38 5029.86 2226.73 5014.57 2227.05 4999.17ZM2238.76 4930.97H2215.94C2211.67 4919.77 2205.45 4909.41 2197.58 4900.35C2213.72 4906.86 2227.9 4917.41 2238.76 4930.97ZM2122.4 4900.35C2114.53 4909.41 2108.31 4919.77 2104.03 4930.97H2081.22C2092.08 4917.41 2106.26 4906.86 2122.4 4900.35ZM2081.26 5056.01H2104.07C2108.35 5067.21 2114.56 5077.57 2122.44 5086.63C2106.3 5080.12 2092.12 5069.57 2081.26 5056.01ZM2197.61 5086.63C2205.49 5077.57 2211.7 5067.21 2215.98 5056.01H2238.79C2227.94 5069.57 2213.75 5080.12 2197.61 5086.63Z" fill="white"/>
<rect x="582" y="6172" width="384" height="383.99" rx="40" fill="#AD8E50"/>
<mask id="mask0_356_935" style="mask-type:luminance" maskUnits="userSpaceOnUse" x="666" y="6255" width="216" height="217">
<path d="M666 6255.9H882V6471.89H666V6255.9Z" fill="white"/>
</mask>
<g mask="url(#mask0_356_935)">
<path fill-rule="evenodd" clip-rule="evenodd" d="M666 6364.5C666 6418.19 704.997 6462.84 756 6471.89V6393.89H729V6363.89H756V6339.89C756 6312.89 773.397 6297.9 798.003 6297.9C805.797 6297.9 814.203 6299.1 821.997 6300.29V6327.9H808.2C794.997 6327.9 792 6334.49 792 6342.9V6363.89H820.8L816.003 6393.89H792V6471.89C843.003 6462.84 882 6418.2 882 6364.5C882 6304.77 833.4 6255.9 774 6255.9C714.6 6255.9 666 6304.77 666 6364.5Z" fill="white"/>
</g>
<rect x="1044" y="6172" width="384" height="383.99" rx="45" fill="#AD8E50"/>
<path fill-rule="evenodd" clip-rule="evenodd" d="M1196.01 6267.48C1206.35 6267 1209.65 6266.9 1236 6266.9C1262.35 6266.9 1265.65 6267.01 1275.98 6267.48C1286.32 6267.95 1293.37 6269.59 1299.54 6271.98C1306.01 6274.43 1311.87 6278.25 1316.72 6283.18C1321.66 6288.02 1325.47 6293.88 1327.9 6300.35C1330.3 6306.52 1331.94 6313.58 1332.42 6323.9C1332.89 6334.26 1333 6337.56 1333 6363.9C1333 6390.24 1332.89 6393.54 1332.42 6403.88C1331.95 6414.2 1330.3 6421.26 1327.9 6427.43C1325.47 6433.9 1321.65 6439.77 1316.72 6444.62C1311.87 6449.55 1306.01 6453.36 1299.54 6455.8C1293.37 6458.2 1286.32 6459.84 1276 6460.31C1265.65 6460.79 1262.35 6460.89 1236 6460.89C1209.65 6460.89 1206.35 6460.78 1196.01 6460.31C1185.69 6459.84 1178.64 6458.2 1172.47 6455.8C1165.99 6453.36 1160.13 6449.55 1155.28 6444.62C1150.34 6439.77 1146.52 6433.91 1144.09 6427.44C1141.7 6421.27 1140.06 6414.21 1139.58 6403.89C1139.11 6393.53 1139 6390.23 1139 6363.9C1139 6337.55 1139.11 6334.25 1139.58 6323.91C1140.05 6313.58 1141.7 6306.52 1144.09 6300.35C1146.53 6293.88 1150.35 6288.02 1155.29 6283.17C1160.13 6278.24 1165.99 6274.42 1172.46 6271.98C1178.63 6269.59 1185.69 6267.95 1196.01 6267.48ZM1275.2 6284.94C1264.97 6284.47 1261.9 6284.37 1236 6284.37C1210.1 6284.37 1207.03 6284.47 1196.8 6284.94C1187.34 6285.37 1182.21 6286.95 1178.79 6288.28C1174.26 6290.04 1171.03 6292.13 1167.63 6295.53C1164.41 6298.66 1161.94 6302.47 1160.38 6306.68C1159.05 6310.1 1157.47 6315.24 1157.04 6324.7C1156.57 6334.93 1156.48 6338 1156.48 6363.9C1156.48 6389.79 1156.57 6392.86 1157.04 6403.09C1157.47 6412.55 1159.05 6417.69 1160.38 6421.11C1161.94 6425.31 1164.41 6429.13 1167.63 6432.26C1170.76 6435.48 1174.58 6437.96 1178.79 6439.51C1182.21 6440.84 1187.34 6442.42 1196.8 6442.85C1207.03 6443.32 1210.09 6443.42 1236 6443.42C1261.91 6443.42 1264.97 6443.32 1275.2 6442.85C1284.66 6442.42 1289.79 6440.84 1293.21 6439.51C1297.74 6437.75 1300.97 6435.66 1304.37 6432.26C1307.59 6429.13 1310.06 6425.31 1311.62 6421.11C1312.95 6417.69 1314.53 6412.55 1314.96 6403.09C1315.43 6392.86 1315.52 6389.79 1315.52 6363.9C1315.52 6338 1315.43 6334.93 1314.96 6324.7C1314.53 6315.24 1312.95 6310.1 1311.62 6306.68C1309.85 6302.16 1307.76 6298.92 1304.37 6295.53C1301.24 6292.31 1297.42 6289.83 1293.21 6288.28C1289.79 6286.95 1284.66 6285.37 1275.2 6284.94ZM1223.61 6393.8C1230.53 6396.68 1238.23 6397.07 1245.41 6394.9C1252.58 6392.73 1258.78 6388.14 1262.94 6381.9C1267.11 6375.67 1268.98 6368.19 1268.24 6360.73C1267.5 6353.27 1264.19 6346.3 1258.88 6341.01C1255.5 6337.63 1251.41 6335.04 1246.9 6333.43C1242.4 6331.82 1237.59 6331.23 1232.83 6331.7C1228.07 6332.17 1223.47 6333.69 1219.37 6336.15C1215.26 6338.61 1211.76 6341.94 1209.1 6345.92C1206.44 6349.9 1204.7 6354.42 1203.99 6359.15C1203.29 6363.88 1203.65 6368.71 1205.04 6373.29C1206.42 6377.87 1208.81 6382.08 1212.02 6385.63C1215.23 6389.17 1219.19 6391.96 1223.61 6393.8ZM1200.74 6328.64C1205.37 6324.01 1210.87 6320.34 1216.92 6317.83C1222.97 6315.33 1229.45 6314.04 1236 6314.04C1242.55 6314.04 1249.03 6315.33 1255.08 6317.83C1261.13 6320.34 1266.63 6324.01 1271.26 6328.64C1275.88 6333.27 1279.56 6338.77 1282.06 6344.82C1284.57 6350.86 1285.86 6357.35 1285.86 6363.9C1285.86 6370.44 1284.57 6376.93 1282.06 6382.97C1279.56 6389.02 1275.88 6394.52 1271.26 6399.15C1261.9 6408.5 1249.22 6413.75 1236 6413.75C1222.78 6413.75 1210.1 6408.5 1200.74 6399.15C1191.39 6389.8 1186.14 6377.12 1186.14 6363.9C1186.14 6350.67 1191.39 6337.99 1200.74 6328.64ZM1296.92 6321.46C1298.06 6320.38 1298.98 6319.08 1299.62 6317.64C1300.25 6316.19 1300.59 6314.64 1300.61 6313.06C1300.64 6311.48 1300.34 6309.92 1299.75 6308.45C1299.16 6306.99 1298.28 6305.67 1297.16 6304.55C1296.05 6303.43 1294.72 6302.55 1293.26 6301.96C1291.8 6301.37 1290.23 6301.08 1288.65 6301.1C1287.08 6301.12 1285.52 6301.46 1284.08 6302.1C1282.63 6302.73 1281.33 6303.65 1280.25 6304.8C1278.14 6307.03 1276.99 6309.99 1277.04 6313.06C1277.08 6316.13 1278.32 6319.05 1280.49 6321.22C1282.66 6323.39 1285.59 6324.63 1288.65 6324.67C1291.72 6324.72 1294.68 6323.57 1296.92 6321.46Z" fill="white"/>
<rect x="1968" y="6172" width="384" height="383.99" rx="45" fill="#AD8E50"/>
<path d="M2164.44 6263.07C2175.49 6262.9 2186.47 6262.98 2197.44 6262.9C2197.8 6276.65 2203.37 6289.02 2212.22 6298.19L2212.21 6298.17C2221.74 6306.78 2234.14 6312.36 2247.81 6313.3L2248 6313.32V6347.41C2235.09 6347.08 2222.94 6344.1 2211.99 6338.97L2212.55 6339.2C2207.25 6336.65 2202.77 6334.03 2198.52 6331.1L2198.87 6331.33C2198.79 6356.03 2198.95 6380.74 2198.7 6405.35C2198.01 6417.9 2193.84 6429.34 2187.17 6438.89L2187.31 6438.68C2176.15 6454.7 2158.07 6465.21 2137.52 6465.83H2137.43C2136.6 6465.87 2135.62 6465.89 2134.63 6465.89C2122.95 6465.89 2112.02 6462.63 2102.72 6456.96L2102.99 6457.12C2086.05 6446.9 2074.36 6429.42 2072.2 6409.1L2072.17 6408.82C2072.01 6404.59 2071.92 6400.36 2072.09 6396.21C2075.4 6363.86 2102.45 6338.83 2135.32 6338.83C2139.01 6338.83 2142.63 6339.15 2146.15 6339.75L2145.77 6339.7C2145.94 6352.22 2145.44 6364.74 2145.44 6377.26C2142.58 6376.22 2139.28 6375.62 2135.85 6375.62C2123.23 6375.62 2112.5 6383.7 2108.53 6394.99L2108.46 6395.19C2107.57 6398.08 2107.05 6401.41 2107.05 6404.84C2107.05 6406.24 2107.13 6407.62 2107.3 6408.97L2107.28 6408.81C2109.53 6422.66 2121.37 6433.11 2135.66 6433.11C2136.07 6433.11 2136.47 6433.11 2136.88 6433.09H2136.82C2146.7 6432.79 2155.28 6427.46 2160.13 6419.59L2160.2 6419.47C2162 6416.95 2163.23 6413.9 2163.65 6410.59L2163.65 6410.5C2164.5 6395.35 2164.16 6380.3 2164.24 6365.15C2164.32 6331.06 2164.16 6297.05 2164.41 6263.05L2164.44 6263.07Z" fill="white"/>
<rect x="2892" y="6172" width="384" height="383.99" rx="45" fill="#AD8E50"/>
<path fill-rule="evenodd" clip-rule="evenodd" d="M3062.08 6390.99V6331.22C3083.29 6341.21 3099.73 6350.85 3119.16 6361.25C3103.13 6370.14 3083.29 6380.11 3062.08 6390.99ZM3180.32 6301.5C3176.66 6296.68 3170.42 6292.92 3163.78 6291.68C3144.26 6287.97 3022.49 6287.96 3002.98 6291.68C2997.65 6292.68 2992.91 6295.09 2988.84 6298.84C2971.67 6314.77 2977.05 6400.21 2981.19 6414.04C2982.93 6420.03 2985.18 6424.35 2988.01 6427.19C2991.66 6430.94 2996.65 6433.52 3002.39 6434.68C3018.47 6438 3101.26 6439.86 3163.44 6435.18C3169.17 6434.18 3174.24 6431.51 3178.24 6427.61C3194.11 6411.74 3193.03 6321.51 3180.32 6301.5Z" fill="white"/>
<rect x="3354" y="6172" width="384" height="383.99" rx="45" fill="#AD8E50"/>
<path fill-rule="evenodd" clip-rule="evenodd" d="M3634 6451.89H3598.8V6390.3C3598.8 6373.41 3591.35 6363.98 3577.98 6363.98C3563.43 6363.98 3554.8 6373.8 3554.8 6390.3V6451.89H3519.6V6337.5H3554.8V6350.36C3554.8 6350.36 3565.84 6330.98 3590.73 6330.98C3615.63 6330.98 3634 6346.17 3634 6377.61V6451.89ZM3479.49 6319.2C3467.62 6319.2 3458 6309.5 3458 6297.54C3458 6285.59 3467.62 6275.9 3479.49 6275.9C3491.35 6275.9 3500.97 6285.59 3500.97 6297.54C3500.98 6309.5 3491.35 6319.2 3479.49 6319.2ZM3458 6451.89H3502V6337.5H3458V6451.89Z" fill="white"/>
<rect x="2430" y="6172" width="384" height="383.99" rx="45" fill="#AD8E50"/>
<path d="M2716.69 6424.19C2739.81 6390.08 2739.73 6338.36 2716.69 6304.26C2673.57 6235.76 2570.83 6235.79 2527.71 6304.26C2504.13 6338.48 2504.13 6390.31 2527.52 6424.53C2570.64 6493.03 2673.38 6493 2716.5 6424.53C2716.58 6424.42 2716.64 6424.31 2716.69 6424.19ZM2521.43 6370.08H2554.97C2555.32 6385.48 2557.71 6400.77 2562.08 6415.55H2535.46C2527.17 6401.74 2522.35 6386.14 2521.43 6370.08ZM2535.35 6313.24H2561.97C2557.6 6328.02 2555.2 6343.31 2554.86 6358.71H2521.43C2522.32 6342.66 2527.09 6327.06 2535.35 6313.24ZM2722.58 6358.71H2689.05C2688.7 6343.31 2686.31 6328.02 2681.93 6313.24H2708.55C2716.85 6327.05 2721.66 6342.65 2722.58 6358.71ZM2677.64 6358.71H2644.14C2644.14 6347.34 2643.64 6330.41 2642.24 6313.24H2669.69C2674.53 6327.94 2677.21 6343.25 2677.64 6358.71ZM2613.34 6415.55C2612.2 6402.51 2611.44 6387.21 2611.32 6370.08H2632.69C2632.69 6387.21 2631.82 6402.51 2630.68 6415.55H2613.34ZM2629.5 6426.91C2627.37 6445.25 2624.55 6457.83 2621.89 6463.02C2619.35 6457.83 2616.53 6445.25 2614.29 6426.91H2629.5ZM2611.32 6358.71C2611.32 6341.58 2612.2 6326.28 2613.34 6313.24H2630.68C2631.82 6326.28 2632.58 6341.58 2632.69 6358.71H2611.32ZM2614.52 6301.88C2616.65 6283.54 2619.46 6270.96 2622.12 6265.77C2624.67 6270.96 2627.48 6283.54 2629.73 6301.88H2614.52ZM2641.13 6301.88C2640.1 6289.88 2637.76 6278.02 2634.18 6266.52C2646.5 6271.71 2657.41 6284.48 2665.24 6301.88H2641.13ZM2609.84 6266.52C2606.29 6278.03 2604 6289.88 2602.99 6301.88H2578.77C2586.61 6284.48 2597.52 6271.71 2609.84 6266.52ZM2601.78 6313.24C2600.37 6330.41 2599.99 6347.34 2599.88 6358.71H2566.38C2566.81 6343.25 2569.49 6327.94 2574.32 6313.24H2601.78ZM2566.38 6370.08H2599.88C2599.88 6381.45 2600.37 6398.38 2601.78 6415.55H2574.32C2569.49 6400.85 2566.81 6385.54 2566.38 6370.08ZM2602.88 6426.91C2603.92 6438.91 2606.25 6450.77 2609.84 6462.27C2597.52 6457.08 2586.61 6444.31 2578.77 6426.91H2602.88ZM2634.18 6462.27C2637.72 6450.76 2640.02 6438.91 2641.02 6426.91H2665.13C2657.41 6444.31 2646.5 6457.08 2634.18 6462.27ZM2642.24 6415.55C2643.64 6398.38 2644.02 6381.45 2644.14 6370.08H2677.64C2677.21 6385.54 2674.53 6400.85 2669.69 6415.55H2642.24ZM2689.05 6370.08H2722.58C2721.7 6386.13 2716.92 6401.73 2708.67 6415.55H2682.05C2686.38 6400.76 2688.73 6385.48 2689.05 6370.08ZM2700.76 6301.88H2677.94C2673.67 6290.68 2667.45 6280.31 2659.58 6271.26C2675.72 6277.77 2689.9 6288.31 2700.76 6301.88ZM2584.4 6271.26C2576.53 6280.31 2570.31 6290.68 2566.03 6301.88H2543.22C2554.08 6288.31 2568.26 6277.77 2584.4 6271.26ZM2543.26 6426.91H2566.07C2570.35 6438.11 2576.56 6448.48 2584.44 6457.53C2568.3 6451.02 2554.12 6440.48 2543.26 6426.91ZM2659.61 6457.53C2667.49 6448.48 2673.7 6438.11 2677.98 6426.91H2700.79C2689.94 6440.48 2675.75 6451.02 2659.61 6457.53Z" fill="white"/>
<rect x="1514" y="6172" width="384" height="383.99" rx="45" fill="#AD8E50"/>
<path d="M1661.28 6287L1710.48 6363.29C1734.48 6324.96 1746.65 6305.43 1746.98 6304.7C1748.93 6300.14 1748.52 6296.76 1745.76 6294.57C1743.07 6292.37 1738.15 6290.94 1730.99 6290.29L1730.5 6287.97C1745.15 6286.59 1756.05 6287 1763.21 6289.2C1763.86 6289.52 1764.27 6290.01 1764.43 6290.66C1764.6 6291.23 1764.55 6291.76 1764.31 6292.25C1762.6 6295.67 1760.28 6299.82 1757.35 6304.7C1754.42 6309.58 1740.38 6331.51 1715.24 6370.49L1761.5 6441.54C1763.62 6444.71 1765.82 6447.48 1768.09 6449.84C1770.37 6452.12 1772.86 6454.03 1775.54 6455.58C1778.31 6457.12 1780.67 6458.3 1782.62 6459.12C1784.57 6459.93 1787.22 6460.91 1790.56 6462.05V6464.49C1774.12 6463.51 1761.95 6464.16 1754.06 6466.44L1752.23 6465.46C1752.55 6462.21 1751.21 6458.3 1748.2 6453.75L1700.22 6380.02L1653.23 6449.23C1650.95 6452.48 1651.11 6455.13 1653.71 6457.16C1656.4 6459.12 1662.26 6460.99 1671.29 6462.78L1670.8 6464.98C1656.56 6463.92 1644.97 6463.59 1636.01 6464C1635.44 6463.43 1634.96 6462.62 1634.55 6461.56L1694.97 6371.96L1657.99 6314.95C1655.06 6310.8 1652.53 6307.67 1650.42 6305.55C1648.38 6303.36 1646.35 6301.81 1644.32 6300.91C1642.36 6299.94 1640.25 6299.45 1637.97 6299.45C1635.77 6299.37 1633.04 6299.37 1629.79 6299.45V6297.25C1632.8 6295.71 1635.61 6294.32 1638.21 6293.1C1640.9 6291.8 1643.5 6290.7 1646.02 6289.81C1648.55 6288.91 1651.03 6288.22 1653.47 6287.73C1655.99 6287.24 1658.6 6287 1661.28 6287Z" fill="white"/>
<rect x="-1945.03" y="-2803.31" width="5798.81" height="2630.34" rx="123" transform="rotate(34.6999 -1945.03 -2803.31)" stroke="#D7BA74" stroke-width="54"/>
<rect x="459.648" y="7078.48" width="1607.16" height="3024.34" rx="123" transform="rotate(128.559 459.648 7078.48)" stroke="#D7BA74" stroke-width="54"/>
<rect x="304.915" y="7093.2" width="1588.33" height="3024.34" rx="123" transform="rotate(128.559 304.915 7093.2)" stroke="#D7BA74" stroke-width="54"/>
<rect x="165.105" y="7108.08" width="1455.48" height="3024.34" rx="123" transform="rotate(128.559 165.105 7108.08)" stroke="#D7BA74" stroke-width="54"/>
<rect x="5500.04" y="8991.66" width="1285.13" height="2408.94" rx="123" transform="rotate(135.375 5500.04 8991.66)" stroke="#D7BA74" stroke-width="54"/>
<rect x="5500.04" y="8845.66" width="1285.13" height="2408.94" rx="123" transform="rotate(135.375 5500.04 8845.66)" stroke="#D7BA74" stroke-width="54"/>
<rect x="5500.04" y="8703.66" width="1285.13" height="2408.94" rx="123" transform="rotate(135.375 5500.04 8703.66)" stroke="#D7BA74" stroke-width="54"/>
</g>
<defs>
<clipPath id="clip0_356_935">
<rect width="4320" height="7680" fill="white"/>
</clipPath>
</defs>
</svg>
